<svg width="56" height="56" viewBox="0 0 56 56" fill="none" xmlns="http://www.w3.org/2000/svg">
<g id="anatomy">
<g id="Group">
<path id="Vector" d="M15.0462 43.6001C13.9658 43.6286 10.3339 43.599 8.99762 42.019V42.0194C8.79817 41.782 8.47912 41.7001 8.19801 41.8138C7.91871 41.9219 7.73263 42.2003 7.73154 42.5128C7.72612 43.5448 7.94292 46.0562 10.0639 47.0862H10.0643C10.4588 47.2789 10.8892 47.3783 11.3246 47.3771C13.1529 47.3771 14.8579 45.7035 15.6001 44.8607C16.0334 44.3829 15.6706 43.5705 15.0462 43.6001ZM10.4982 46.099C9.31415 45.5241 8.92066 44.2899 8.80726 43.2898C10.3064 44.4242 12.7446 44.6642 14.295 44.6904C13.4065 45.551 11.8362 46.749 10.4986 46.0994L10.4982 46.099Z" fill="#13297E"/>
<path id="Vector_2" d="M20.1584 36.2343C18.3959 36.73 12.3517 38.1408 8.58036 35.4731C7.95707 35.0301 7.1716 35.772 7.54225 36.4637C8.95572 38.9539 10.7046 41.8932 12.986 41.8431C15.3949 41.8431 19.3775 39.8865 20.9536 37.3732C21.3218 36.8054 20.7848 36.0439 20.1586 36.2343L20.1584 36.2343ZM12.5533 40.7231C11.6471 40.5696 10.3735 39.2046 9.05636 37.0061C12.5966 38.7825 17.2237 38.0577 19.5254 37.5162C17.7495 39.5073 14.2584 41.0122 12.5536 40.7231L12.5533 40.7231Z" fill="#13297E"/>
<path id="Vector_3" d="M50.0057 39.4814C49.9562 39.225 49.9941 38.9584 50.1134 38.7285C50.9552 37.1277 51.3429 35.2337 51.3332 32.7674C51.3358 31.5944 49.9717 30.9587 49.1227 31.7085C47.4787 33.1213 44.1223 35.4082 40.1156 34.8568C35.8133 34.264 32.147 32.2748 30.4976 31.2557C30.5644 30.9303 30.6226 30.6011 30.6725 30.2689C32.81 31.3418 36.4561 32.6548 39.4057 32.5558C43.1306 32.821 53.5413 29.182 49.9163 23.999C49.0372 23.0114 47.4044 23.0971 47.2204 23.11L47.2211 23.1104C47.0539 23.1241 46.9028 23.2215 46.8157 23.3721C46.7283 23.5227 46.7157 23.7081 46.7814 23.8701C47.1091 24.6589 47.0763 25.4026 46.6839 26.0808C45.7722 27.6559 43.0518 28.7884 39.5849 29.036C35.9619 29.2935 32.4521 27.6203 30.8781 26.7365C30.8496 25.8919 30.8062 25.0253 30.7773 24.2259C32.3765 24.8923 34.6532 25.57 36.629 25.5287C39.4849 25.5287 42.0499 24.535 44.637 22.4392C47.167 20.4865 48.0103 17.724 46.4092 15.7882C45.528 14.8218 43.9887 15.1214 43.9237 15.1347L43.9233 15.1343C43.7665 15.1662 43.6325 15.2724 43.5599 15.4218C43.4876 15.5712 43.4851 15.7476 43.553 15.8993C43.9421 16.7686 43.9378 17.6253 43.5403 18.4453C42.7696 20.0363 40.6361 21.325 37.8329 21.8924C34.9922 22.4689 32.0387 21.3114 30.6541 20.6461C30.6314 19.8656 30.6137 19.1352 30.6003 18.454C32.6989 18.454 36.9304 18.0607 40.778 15.2956C40.9275 15.1875 44.4317 12.6173 43.5417 10.0758C43.2418 9.20467 42.6301 8.43249 41.677 8.78784V8.78821C41.1447 8.99567 40.8054 9.54559 40.8434 10.1403C40.8904 10.8886 39.8006 11.9615 38.7792 12.6358C36.0681 14.3743 33.2423 15.2129 30.5754 15.079C30.5887 13.774 30.6382 12.902 30.7246 12.5224V12.5228C30.8391 12.2027 30.979 11.8932 31.1426 11.5974C33.2535 11.3016 36.8245 10.4027 39.9012 7.6398C40.2365 7.33905 40.4395 6.90707 40.463 6.44472C40.4861 5.98241 40.3275 5.53033 40.0244 5.1943C39.7209 4.85828 39.2996 4.66751 38.8587 4.66675C38.4829 4.66675 38.1194 4.8048 37.8311 5.05776C36.9708 5.81324 34.7501 7.55977 31.944 8.2363C31.806 6.91306 31.2742 5.5804 30.3073 5.12941C29.5297 4.71905 28.8576 4.59352 28.3095 4.75661C28.0945 4.82032 27.8669 4.82032 27.6519 4.75661C27.1037 4.59352 26.4317 4.71944 25.6545 5.12941C24.6893 5.57997 24.1575 6.90733 24.0183 8.22756C21.2307 7.54375 19.0241 5.80788 18.1693 5.05805C17.7288 4.67803 17.1298 4.57071 16.5947 4.77664C16.0596 4.98258 15.6678 5.4703 15.566 6.05891C15.4637 6.64752 15.6661 7.24905 16.0978 7.63964C19.16 10.3896 22.7126 11.2923 24.8144 11.5907H24.8147C24.9795 11.8884 25.1204 12.1998 25.236 12.5222C25.3224 12.9014 25.3719 13.7742 25.3853 15.0807C22.7314 15.2059 19.9188 14.3658 17.2198 12.6356C16.2055 11.9696 15.115 10.8884 15.1541 10.1578C15.2 9.55672 14.8596 8.99733 14.3209 8.78761C13.3677 8.43073 12.7556 9.20859 12.4572 10.0756C11.5673 12.6174 15.0714 15.1872 15.2221 15.2961C19.0481 18.0473 23.2702 18.4482 25.36 18.4538C25.3466 19.1395 25.3282 19.8764 25.3054 20.6648C23.7202 21.4249 20.9185 22.4489 18.1653 21.8918C14.7465 21.2 11.1271 19.0579 12.4456 15.8987V15.8991C12.5124 15.747 12.5091 15.5714 12.4369 15.4223C12.3646 15.2733 12.2313 15.1671 12.0752 15.1341C12.0102 15.1208 10.4695 14.8212 9.58966 15.7879V15.7876C9.00178 16.4915 8.71164 17.4158 8.78535 18.3483C8.88653 19.7595 9.75335 21.1359 11.3619 22.439C13.9494 24.5348 16.5136 25.5284 19.3692 25.5284C21.3293 25.5698 23.593 24.9004 25.1825 24.242C25.1525 25.0433 25.1128 25.9142 25.0788 26.7595C23.5064 27.6364 20.0113 29.2914 16.4125 29.0358C12.5677 28.7662 7.96442 27.1221 9.21713 23.8707L9.21749 23.8703C9.28289 23.708 9.27024 23.5225 9.18317 23.372C9.09609 23.2214 8.94506 23.1239 8.77776 23.1103C8.59457 23.0974 6.96136 23.0113 6.0816 23.9997C5.48687 24.7115 5.22527 25.6646 5.36799 26.5994C6.04078 30.4166 13.3001 32.6888 16.5927 32.5561C19.4346 32.6502 23.0246 31.4282 25.2984 30.2847C25.3501 30.6158 25.4101 30.9446 25.4777 31.2711C23.8347 32.2822 20.1713 34.2662 15.8846 34.8571C11.8764 35.4089 8.52049 33.1216 6.87716 31.7092L6.8768 31.7088C6.67807 31.5363 6.43635 31.427 6.18017 31.394C5.92436 31.361 5.66456 31.4058 5.43187 31.5226C4.96758 31.7456 4.66912 32.2314 4.66695 32.7673C4.65648 35.2332 5.04454 37.1272 5.88683 38.7284C6.00607 38.9579 6.044 39.2241 5.99378 39.4801C5.67762 41.2186 5.66063 42.8483 5.94355 44.3229C5.96848 44.448 5.97246 44.577 5.95584 44.7033C5.83154 45.5551 5.82577 46.4213 5.93849 47.2746C5.99811 48.2432 6.75074 51.3703 9.40147 51.3331C16.4505 50.4733 20.6983 39.5192 26.5471 35.1346C26.6363 35.3663 26.7353 35.598 26.8444 35.8305C27.0554 36.2875 27.497 36.5776 27.9808 36.5776C28.4646 36.5776 28.9058 36.2875 29.1171 35.8305C29.2302 35.5901 29.3325 35.35 29.4239 35.1103C35.286 39.4877 39.5534 50.4797 46.5991 51.3321C49.2389 51.3731 50.0039 48.2517 50.0623 47.2736H50.062C50.1743 46.4203 50.1685 45.5545 50.0446 44.7027C50.028 44.5764 50.032 44.4482 50.0565 44.3231C50.3391 42.85 50.3221 41.22 50.0056 39.4811L50.0057 39.4814ZM39.656 30.1205C44.084 29.7826 48.5611 28.0062 47.9744 24.2276C48.3975 24.2872 48.8839 24.4302 49.1606 24.7412C50.4133 26.3636 49.0667 28.2141 46.7979 29.422C41.4493 32.5679 35.6305 31.7055 30.8095 29.1201C30.8435 28.737 30.8659 28.3498 30.8774 27.9592C32.7119 28.9248 36.1155 30.3727 39.6557 30.1206L39.656 30.1205ZM38.03 22.9601C41.9233 22.1402 45.555 19.8437 44.7496 16.1729C45.0755 16.1984 45.4361 16.2924 45.6612 16.5397C46.8425 18.0416 45.9373 20.0759 44.0046 21.5785C39.8721 25.1215 35.0803 25.06 30.7329 23.0269C30.7184 22.6252 30.7047 22.2342 30.6924 21.853C32.4589 22.6408 35.2425 23.5256 38.0301 22.9601L38.03 22.9601ZM39.3199 13.5633C39.4301 13.506 42.0403 11.7663 41.8781 10.0744H41.8777C41.8669 9.95648 41.9341 9.84573 42.0403 9.80667C42.1241 9.76723 42.2224 9.79719 42.2726 9.87759C42.3988 10.0521 42.4988 10.2451 42.5697 10.451C43.0791 11.9054 41.025 13.7953 40.1918 14.3995C36.5619 17.0084 32.5519 17.3703 30.583 17.3668C30.5772 16.942 30.574 16.5422 30.5725 16.1679C33.4345 16.3014 36.4458 15.4063 39.3201 13.5632L39.3199 13.5633ZM38.4954 5.8912C38.6746 5.74025 38.9218 5.71371 39.1263 5.82369C39.2928 5.91889 39.4041 6.09411 39.424 6.29207C39.4435 6.49043 39.3694 6.68575 39.2253 6.81545C36.7134 9.08454 33.7715 10.0134 31.7806 10.393C31.8839 10.0528 31.9464 9.70012 31.967 9.34329C35.0907 8.65038 37.5545 6.71724 38.4954 5.8912ZM16.8719 5.82369C17.0768 5.71333 17.3247 5.73988 17.5039 5.89196C18.6637 6.90946 21.0091 8.66476 23.9936 9.33565C24.0135 9.69215 24.0753 10.0445 24.1775 10.3854C22.1968 10.0023 19.2715 9.07273 16.7733 6.81538L16.7729 6.815C16.6287 6.68606 16.5539 6.49035 16.5738 6.29201C16.5937 6.09403 16.705 5.91888 16.8719 5.82369ZM15.8082 14.4006C14.8127 13.6831 12.4403 11.4374 13.7259 9.87682C13.8335 9.70729 14.1259 9.79717 14.1204 10.0687C13.9488 11.7591 16.5684 13.5067 16.6782 13.5632C19.5402 15.3977 22.5385 16.2927 25.3872 16.1687C25.3861 16.543 25.3825 16.9424 25.3767 17.3668C23.4122 17.3641 19.4149 16.9936 15.8077 14.4006L15.8082 14.4006ZM20.1466 24.4145C17.2148 24.6087 14.6226 23.7076 11.9944 21.5776C10.0599 20.0757 9.158 18.0372 10.3374 16.5391C10.5621 16.2922 10.9227 16.1978 11.249 16.1724C10.4429 19.8436 14.0757 22.14 17.9686 22.9596C20.7392 23.5209 23.5088 22.6482 25.2676 21.8696C25.255 22.2511 25.2416 22.6425 25.2272 23.0434C23.9051 23.6274 22.0363 24.29 20.1466 24.4144V24.4145ZM9.20119 29.4218C7.52937 28.4968 6.55665 27.458 6.38941 26.4174H6.38905C6.3027 25.817 6.46638 25.2064 6.83818 24.741C7.11532 24.4297 7.60166 24.2867 8.02476 24.2271C7.42568 27.9909 11.9277 29.7913 16.3424 30.12C19.8589 30.3711 23.2473 28.9386 25.0781 27.9818C25.0911 28.374 25.1164 28.7615 25.154 29.1446C20.3809 31.6656 14.6036 32.5959 9.20165 29.4219L9.20119 29.4218ZM12.3367 49.1069C10.6869 50.1972 9.38721 50.5079 8.4724 50.03C6.7435 49.0204 6.8089 46.0819 6.97974 44.8591L6.9801 44.8588C7.01335 44.6096 7.00612 44.3563 6.95842 44.1094C6.70189 42.7717 6.71923 41.2835 7.01009 39.6846H7.01045C7.1044 39.179 7.02744 38.6549 6.79257 38.2028C6.03958 36.7707 5.69267 35.0451 5.7021 32.7721C5.71114 32.6485 5.78593 32.5404 5.89541 32.4934C6.00489 32.4464 6.13027 32.468 6.21951 32.5499C12.7071 38.2392 19.3729 35.9045 25.7349 32.3845C25.8596 32.8711 25.998 33.3547 26.1494 33.8352C26.1642 33.9023 26.1804 33.9698 26.1978 34.0373C20.5463 38.4299 17.9155 45.2095 12.3359 49.1067L12.3367 49.1069ZM27.9801 35.4909C27.8902 35.4921 27.8085 35.4363 27.7731 35.3499C27.5046 34.7889 27.2983 34.1981 27.1581 33.5882C27.1017 33.3348 27.0335 33.0849 26.9532 32.8387C26.2971 30.7816 26.0171 28.6134 26.128 26.4471C26.3741 20.7795 26.5923 13.7128 26.2349 12.235C26.2154 12.166 25.978 11.3851 25.263 10.3004C24.859 9.63976 24.8507 6.75324 26.1189 6.10012C26.6103 5.8407 26.9438 5.77395 27.1567 5.77395C27.2286 5.77281 27.2998 5.7823 27.3691 5.80126C27.7688 5.92035 28.1919 5.92035 28.5911 5.80126C28.7548 5.75271 29.1349 5.72693 29.8414 6.09935C31.1092 6.75282 31.1016 9.63858 30.6973 10.2997C29.9761 11.4045 29.7536 12.1368 29.7257 12.2343C29.3684 13.7123 29.587 20.7786 29.8327 26.4463V26.4467C29.9436 28.6127 29.6636 30.7813 29.0074 32.8384C28.9272 33.0841 28.8589 33.3341 28.8025 33.5874C28.662 34.1972 28.4557 34.7881 28.1876 35.3491C28.1522 35.4359 28.0701 35.4921 27.9801 35.4909ZM49.019 44.8582C49.1292 45.6106 49.1346 46.3756 49.0352 47.1296C48.6934 49.883 47.0996 51.433 43.6616 49.1071C38.0734 45.2018 35.4387 38.4048 29.7692 34.0115C29.8866 33.4471 30.0893 32.9101 30.2371 32.3534C32.0585 33.4483 35.7141 35.3465 39.981 35.9344C44.3735 36.54 48.0056 34.0733 49.7794 32.5495C49.9821 32.3773 50.295 32.5101 50.2975 32.7717C50.3069 35.0442 49.96 36.7703 49.207 38.2024H49.2067C48.9718 38.6545 48.8945 39.1782 48.9877 39.6838C49.2789 41.285 49.297 42.7736 49.0405 44.1097H49.0401C48.9924 44.3559 48.9852 44.6092 49.0188 44.858L49.019 44.8582Z" fill="#13297E"/>
<path id="Vector_4" d="M47.4151 35.4734C43.6437 38.1407 37.5991 36.7298 35.837 36.2345C35.2116 36.0445 34.6732 36.8049 35.0418 37.3734C36.6182 39.8872 40.6008 41.8437 43.0093 41.8437C45.2918 41.8927 47.0381 38.9557 48.4531 36.4643C48.8249 35.7669 48.0368 35.033 47.4153 35.4734L47.4151 35.4734ZM43.442 40.7234C41.7355 41.0124 38.2462 39.5082 36.4699 37.5168C38.7708 38.0584 43.3983 38.7828 46.9389 37.0067C45.6216 39.2049 44.3482 40.5702 43.4424 40.7234L43.442 40.7234Z" fill="#13297E"/>
<path id="Vector_5" d="M47.7992 41.8138C47.5177 41.7001 47.199 41.782 46.9992 42.0194C45.6627 43.599 42.0321 43.6286 40.9506 43.6005C40.323 43.5705 39.9663 44.3833 40.397 44.8607C41.1392 45.7034 42.8443 47.3775 44.673 47.3775V47.3767C45.1084 47.3783 45.5387 47.2789 45.9337 47.0862C48.0543 46.0562 48.2711 43.5447 48.266 42.5128C48.2646 42.2003 48.0785 41.9215 47.7992 41.8138ZM45.4986 46.0995C44.1606 46.7492 42.5906 45.5511 41.7014 44.6909C43.2523 44.6647 45.6901 44.4247 47.1892 43.2903C47.0758 44.29 46.6819 45.5245 45.4982 46.0995H45.4986Z" fill="#13297E"/>
</g>
</g>
</svg>
