<svg width="12" height="12" viewBox="0 0 12 12" fill="none" xmlns="http://www.w3.org/2000/svg">
<g id="arrow-2">
<path id="Vector" d="M7.42316 9.61386C7.33283 9.5231 7.28554 9.40759 7.28127 9.26733C7.27733 9.12706 7.32052 9.01155 7.41084 8.92079L9.82492 6.49505H0.992672C0.853083 6.49505 0.735992 6.44752 0.641399 6.35247C0.547135 6.25776 0.500003 6.14026 0.500003 6C0.500003 5.85974 0.547135 5.74208 0.641399 5.64703C0.735992 5.55231 0.853083 5.50495 0.992672 5.50495L9.82492 5.50495L7.41084 3.07921C7.32052 2.98845 7.27733 2.87294 7.28127 2.73267C7.28554 2.59241 7.33283 2.4769 7.42316 2.38614C7.51348 2.29538 7.62844 2.25 7.76802 2.25C7.90761 2.25 8.02257 2.29538 8.11289 2.38614L11.3645 5.65347C11.4138 5.69472 11.4488 5.7462 11.4695 5.80792C11.4898 5.86997 11.5 5.93399 11.5 6C11.5 6.06601 11.4898 6.12789 11.4695 6.18564C11.4488 6.2434 11.4138 6.29703 11.3645 6.34653L8.11289 9.61386C8.02257 9.70462 7.90761 9.75 7.76802 9.75C7.62844 9.75 7.51348 9.70462 7.42316 9.61386Z" fill="white"/>
</g>
</svg>
