<svg width="16" height="17" viewBox="0 0 16 17" fill="none" xmlns="http://www.w3.org/2000/svg">
<g id="chevron">
<path id="Vector" d="M6.69704 4.38043L10.4426 7.95592C10.524 8.03364 10.5816 8.11785 10.6152 8.20853C10.6494 8.29921 10.6665 8.39637 10.6665 8.50001C10.6665 8.60365 10.6494 8.70081 10.6152 8.79149C10.5816 8.88217 10.524 8.96638 10.4426 9.04411L6.69704 12.6196C6.54776 12.7621 6.35777 12.8333 6.12706 12.8333C5.89636 12.8333 5.70637 12.7621 5.55709 12.6196C5.40781 12.4771 5.33317 12.2957 5.33317 12.0755C5.33317 11.8553 5.40781 11.6739 5.55709 11.5314L8.73266 8.50001L5.55709 5.46862C5.40781 5.32612 5.33317 5.14475 5.33317 4.92453C5.33317 4.7043 5.40781 4.52293 5.55709 4.38043C5.70637 4.23793 5.89636 4.16668 6.12706 4.16668C6.35777 4.16668 6.54776 4.23793 6.69704 4.38043Z" fill="white"/>
</g>
</svg>
