<svg width="28" height="29" viewBox="0 0 28 29" fill="none" xmlns="http://www.w3.org/2000/svg">
<g filter="url(#filter0_d_5_6)">
<path d="M5.8746 12.4395L4.9207 11.4856C4.51679 11.0817 4.51679 10.4285 4.9207 10.0289L13.2695 1.67579C13.6734 1.27189 14.3266 1.27189 14.7262 1.67579L23.075 10.0246C23.4789 10.4285 23.4789 11.0817 23.075 11.4813L22.1211 12.4352C21.7129 12.8434 21.0469 12.8348 20.6473 12.418L15.7187 7.24454V19.5938C15.7187 20.1652 15.259 20.625 14.6875 20.625H13.3125C12.741 20.625 12.2812 20.1652 12.2812 19.5938V7.24454L7.34843 12.4223C6.94882 12.8434 6.28281 12.852 5.8746 12.4395Z" fill="black"/>
</g>
<defs>
<filter id="filter0_d_5_6" x="-1" y="0" width="30" height="30" filterUnits="userSpaceOnUse" color-interpolation-filters="sRGB">
<feFlood flood-opacity="0" result="BackgroundImageFix"/>
<feColorMatrix in="SourceAlpha" type="matrix" values="0 0 0 0 0 0 0 0 0 0 0 0 0 0 0 0 0 0 127 0" result="hardAlpha"/>
<feOffset dy="4"/>
<feGaussianBlur stdDeviation="2"/>
<feComposite in2="hardAlpha" operator="out"/>
<feColorMatrix type="matrix" values="0 0 0 0 0 0 0 0 0 0 0 0 0 0 0 0 0 0 0.25 0"/>
<feBlend mode="normal" in2="BackgroundImageFix" result="effect1_dropShadow_5_6"/>
<feBlend mode="normal" in="SourceGraphic" in2="effect1_dropShadow_5_6" result="shape"/>
</filter>
</defs>
</svg>
