<svg width="16" height="16" viewBox="0 0 16 16" fill="none" xmlns="http://www.w3.org/2000/svg">
<g id="chevron">
<path id="Vector" d="M6.69728 3.88034L10.4428 7.45582C10.5243 7.53355 10.5818 7.61776 10.6155 7.70844C10.6496 7.79912 10.6667 7.89628 10.6667 7.99992C10.6667 8.10356 10.6496 8.20072 10.6155 8.2914C10.5818 8.38208 10.5243 8.46629 10.4428 8.54401L6.69728 12.1195C6.548 12.262 6.35801 12.3333 6.12731 12.3333C5.8966 12.3333 5.70661 12.262 5.55733 12.1195C5.40805 11.977 5.33341 11.7956 5.33341 11.5754C5.33341 11.3552 5.40805 11.1738 5.55733 11.0313L8.73291 7.99992L5.55733 4.96853C5.40805 4.82603 5.33341 4.64466 5.33341 4.42443C5.33341 4.2042 5.40805 4.02284 5.55733 3.88034C5.70661 3.73784 5.8966 3.66659 6.12731 3.66659C6.35801 3.66659 6.548 3.73784 6.69728 3.88034Z" fill="#13297E"/>
</g>
</svg>
