<svg width="56" height="56" viewBox="0 0 56 56" fill="none" xmlns="http://www.w3.org/2000/svg">
<g id="Brain">
<g id="Group">
<path id="Vector" d="M16.0742 2.33325C13.8804 2.33325 12.0377 3.56174 11.1602 5.49223C8.79096 6.01872 6.94823 8.1247 6.94823 10.5817C6.94823 11.1959 7.03598 11.7224 7.21148 12.2489C5.89524 13.2142 5.19324 14.7936 5.19324 16.3731C5.19324 17.3384 5.45649 18.3036 5.89524 19.0056C5.19324 19.8831 4.84225 21.0238 4.84225 22.1646C4.84225 23.5686 5.36874 24.8848 6.33398 25.8501C5.28099 26.903 4.66675 28.3948 4.66675 29.8865C4.66675 32.7822 6.86048 35.2392 9.75621 35.5902C9.66846 36.1167 9.66846 36.5555 9.66846 36.9942C9.84396 39.9777 12.3009 42.2592 15.1967 42.3469H15.3722C16.8639 42.3469 18.2679 41.8204 19.3209 40.7674C20.4616 39.7144 21.0759 38.2227 21.0759 36.6432V7.68596C21.1636 4.79023 18.8821 2.421 16.0742 2.33325ZM19.4086 36.6427C19.4086 37.6957 18.9699 38.7487 18.1801 39.4507C17.3904 40.2404 16.4252 40.5914 15.2844 40.5914C13.2662 40.5914 11.5112 38.9242 11.4234 36.8182C11.4234 36.4672 11.4234 35.9407 11.5989 35.3265C11.6867 34.9755 11.5989 34.5367 11.3357 34.2735C11.0724 34.0102 10.7214 33.8347 10.3705 33.8347C8.17672 33.8347 6.42173 32.0798 6.42173 29.886C6.42173 28.7453 6.94823 27.6045 7.91347 26.727C8.35222 26.2883 8.43997 25.4986 7.91347 24.9721L7.82572 24.8843C7.03598 24.2701 6.59723 23.2171 6.59723 22.1641C6.59723 21.2866 6.86048 20.4968 7.38698 19.9704C7.73797 19.6194 7.82572 19.0051 7.47473 18.3909C7.03598 17.7766 6.86048 17.1624 6.86048 16.3726C6.86048 15.1441 7.47473 14.0912 8.43997 13.4769C8.96646 13.2137 9.14196 12.5994 8.96646 11.8974C8.79096 11.3709 8.61547 10.9322 8.61547 10.4934C8.61547 8.8262 9.93171 7.33446 11.5989 7.07121H11.6867C12.3009 6.89571 12.4764 6.45697 12.5642 6.28147C13.0907 4.96523 14.3192 3.99999 15.8109 3.99999H15.8987C17.8291 3.99999 19.3209 5.66722 19.3209 7.59771L19.4086 36.6427Z" fill="white"/>
<path id="Vector_2" d="M11.0722 17.0747C12.1252 16.8992 15.2841 16.8992 15.8984 18.391C16.0739 18.742 16.3371 18.9175 16.6881 18.9175C16.7759 18.9175 16.8636 18.9175 17.0391 18.8297C17.4779 18.6542 17.7411 18.1277 17.5656 17.689C17.3024 16.987 16.7759 16.4605 16.2494 16.1095C17.6534 12.424 14.7576 8.65079 14.6699 8.47529C14.4066 8.12429 13.7924 8.03654 13.4414 8.29979C13.0904 8.56304 13.0027 9.17729 13.2659 9.52828C13.2659 9.52828 15.7229 12.6873 14.5821 15.4075C12.9149 14.9687 11.1599 15.232 10.8967 15.232C10.4579 15.3197 10.1069 15.7585 10.1069 16.1972C10.1947 16.8115 10.6334 17.1625 11.0722 17.0747Z" fill="white"/>
<path id="Vector_3" d="M12.827 25.2358H13.2658C13.7045 25.1481 14.0555 24.7093 13.9677 24.2706C13.88 23.8318 13.4412 23.4809 13.0025 23.5686C11.5985 23.7441 10.6333 20.9361 10.4578 20.2341C10.37 19.7954 9.84353 19.4444 9.40478 19.6199C8.96604 19.7076 8.61504 20.2341 8.79054 20.6729C9.14153 22.3401 10.4578 25.2358 12.827 25.2358Z" fill="white"/>
<path id="Vector_4" d="M17.8291 26.728C17.4781 26.5525 16.5128 25.8505 16.3374 25.0608C16.2496 24.7098 16.3374 24.271 16.5128 23.8323C16.7761 23.3935 16.6006 22.867 16.2496 22.6038C15.8109 22.3406 15.2844 22.5161 15.0211 22.867C14.4946 23.7445 14.4069 24.622 14.6701 25.4118C15.1089 27.079 16.8638 28.0443 17.0393 28.132C17.2148 28.2198 17.3026 28.2198 17.4781 28.2198C17.8291 28.2198 18.0923 28.0443 18.2678 27.781C18.4433 27.43 18.2678 26.9035 17.8291 26.728Z" fill="white"/>
<path id="Vector_5" d="M16.6006 30.5008C16.4251 30.5008 15.5476 30.2376 14.5823 30.5008C13.8803 29.2723 12.3008 28.7458 11.3356 28.7458C10.8969 28.7458 10.4581 29.0968 10.3704 29.5356C10.3704 30.0621 10.7214 30.4131 11.1601 30.5008C11.5111 30.5008 12.9151 30.7641 13.0906 31.5538V31.6416C12.6518 32.3436 12.6518 33.3088 13.0906 34.4496C13.1783 34.8006 13.5293 35.0638 13.8803 35.0638C13.9681 35.0638 14.0558 35.0638 14.1436 34.976C14.5823 34.8006 14.8456 34.3618 14.6701 33.8353C14.4068 33.1333 14.4068 32.6068 14.5823 32.3436C14.8456 32.0803 15.5476 32.0803 16.0741 32.1681C16.5128 32.2558 17.0393 31.9926 17.1271 31.5538C17.3026 31.1151 17.0393 30.5886 16.6006 30.5008Z" fill="white"/>
<path id="Vector_6" d="M27.1307 18.918C27.2184 18.918 27.3062 19.0057 27.4817 19.0057C27.8327 19.0057 28.1837 18.8302 28.2714 18.4792C28.8857 16.9875 32.0446 17.0752 33.0976 17.163C33.6241 17.2507 33.9751 16.8997 34.0629 16.3732C34.1506 15.9345 33.7996 15.4957 33.2731 15.408C32.9221 15.408 31.1671 15.1447 29.4999 15.5835C28.4469 12.8633 30.8161 9.79204 30.8161 9.70429C31.0794 9.35329 31.0794 8.73905 30.6406 8.4758C30.2896 8.21255 29.6754 8.21255 29.4121 8.6513C29.3244 8.8268 26.4287 12.5123 27.8327 16.2855C27.3062 16.6365 26.7797 17.163 26.5164 17.865C26.4287 18.216 26.6042 18.7425 27.1307 18.918Z" fill="white"/>
<path id="Vector_7" d="M33.7125 20.0593C33.537 20.849 32.484 23.657 31.1677 23.3937C30.729 23.306 30.2025 23.657 30.2025 24.0957C30.1148 24.5345 30.4657 25.061 30.9045 25.061H31.3432C33.6247 25.061 35.0287 22.1653 35.4675 20.3225C35.5552 19.8838 35.292 19.3573 34.8532 19.2695C34.3267 19.3573 33.8002 19.6205 33.7125 20.0593Z" fill="white"/>
<path id="Vector_8" d="M26.692 28.3949C26.8675 28.3949 26.9552 28.3949 27.1307 28.3071C27.3062 28.2194 29.0612 27.2542 29.5 25.5869C29.7632 24.7094 29.5877 23.8319 29.149 23.0422C28.8857 22.6034 28.3592 22.5157 27.9205 22.7789C27.4817 23.0422 27.394 23.5687 27.6572 24.0074C27.9205 24.4462 28.0082 24.7972 27.8327 25.2359C27.5695 26.0257 26.6042 26.7277 26.2532 26.9032C25.8145 27.1664 25.639 27.6929 25.9023 28.1316C26.0777 28.2194 26.4287 28.3949 26.692 28.3949Z" fill="white"/>
<path id="Vector_9" d="M35.0281 29.0969C31.1672 29.0969 28.0959 32.2559 28.0959 36.0291C28.0959 39.8023 31.2549 42.9613 35.0281 42.9613C38.8014 42.9613 41.9603 39.8023 41.9603 36.0291C41.9603 32.2559 38.8891 29.0969 35.0281 29.0969ZM35.0281 41.2936C32.1324 41.2936 29.8509 38.9243 29.8509 36.1164C29.8509 33.3084 32.2202 30.9392 35.0281 30.9392C37.8361 30.9392 40.2053 33.3084 40.2053 36.1164C40.2053 38.9243 37.9239 41.2936 35.0281 41.2936Z" fill="white"/>
<path id="Vector_10" d="M51.6132 47.6997L45.9973 42.0837C45.8218 41.9082 45.6463 41.8205 45.383 41.8205C45.1198 41.8205 44.9443 41.9082 44.7688 42.0837L43.5403 43.3122L42.6628 42.4347C44.0668 40.6797 44.9443 38.486 44.9443 36.1168C44.9443 31.9048 42.224 28.3071 38.4508 26.9031C38.2753 26.5521 38.0121 26.2011 37.7488 25.9379C38.7141 24.9726 39.2406 23.6564 39.2406 22.2524C39.2406 21.1117 38.8896 20.0587 38.1876 19.0934C38.6263 18.3037 38.8896 17.4262 38.8896 16.4609C38.8896 14.7937 38.1876 13.302 36.8713 12.3367C37.0468 11.7225 37.1346 11.196 37.1346 10.6695C37.1346 8.21251 35.3796 6.10653 33.0104 5.58003C32.2206 3.64955 30.2024 2.42106 28.0964 2.50881C25.2884 2.59655 22.9192 4.96579 22.9192 7.86151V36.8188C22.9192 39.539 24.7619 41.7327 27.3067 42.347C29.1494 44.6285 31.8696 46.0325 35.0286 46.0325C37.3978 46.0325 39.6793 45.155 41.3465 43.751L42.224 44.6285L40.9955 45.7692C40.6445 46.1202 40.6445 46.6467 40.9955 46.9977L46.6115 52.6137C47.3135 53.3156 48.191 53.6666 49.0685 53.6666C50.0337 53.6666 50.9112 53.3156 51.5255 52.6137C52.2275 51.9117 52.5784 51.0342 52.5784 50.1567C52.6662 49.2792 52.3152 48.3139 51.6132 47.6997ZM24.6747 36.6433V7.68601C24.6747 5.75553 26.2542 4.17604 28.0969 4.08829C29.5886 4.00054 30.9049 4.96579 31.4314 6.28202C31.5191 6.54527 31.6946 6.89627 32.3089 7.07177H32.3966C34.0639 7.33502 35.3801 8.82675 35.3801 10.494C35.3801 10.9327 35.2923 11.3715 35.0291 11.9857C34.8536 12.6 35.1168 13.1265 35.5556 13.3897C36.5208 14.004 37.1351 15.1447 37.1351 16.2854C37.1351 16.9874 36.9596 17.6894 36.4331 18.3914C36.1698 18.9179 36.2576 19.5322 36.6086 19.8832C37.1351 20.4974 37.4861 21.2872 37.4861 22.1646C37.4861 23.2176 37.0473 24.1829 36.2576 24.8849L36.1698 24.9726C35.8188 25.4114 35.7311 25.8501 35.8188 26.2889H35.0291C29.5886 26.2011 25.2012 30.6763 25.2012 36.1168C25.2012 37.2575 25.3767 38.3983 25.8154 39.3635C25.1134 38.6615 24.6747 37.6963 24.6747 36.6433ZM26.9562 36.1168C26.9562 31.6416 30.5539 28.0438 35.0291 28.0438C39.5043 28.0438 43.102 31.6416 43.102 36.1168C43.102 40.592 39.5043 44.1897 35.0291 44.1897C30.5539 44.1897 26.9562 40.592 26.9562 36.1168ZM45.3835 43.9265L46.4365 44.9795L43.8918 47.5242L42.9265 46.4712L45.3835 43.9265ZM50.3852 51.4729C50.0342 51.8239 49.5955 51.9994 49.1567 51.9994C48.718 51.9994 48.1915 51.8239 47.9282 51.4729L45.208 48.7527L47.7527 46.208L50.473 48.9282C50.824 49.2792 50.9995 49.7179 50.9995 50.1567C50.9117 50.6832 50.7362 51.1219 50.3852 51.4729Z" fill="white"/>
</g>
</g>
</svg>
