<svg width="24" height="24" viewBox="0 0 24 24" fill="none" xmlns="http://www.w3.org/2000/svg">
<g id="chevron">
<path id="Vector" d="M5.82063 13.9542L11.1839 8.33588C11.3004 8.21374 11.4268 8.12743 11.5628 8.07695C11.6988 8.02565 11.8445 8 12 8C12.1555 8 12.3012 8.02565 12.4372 8.07695C12.5732 8.12743 12.6996 8.21374 12.8161 8.33588L18.1794 13.9542C18.3931 14.1781 18.5 14.4631 18.5 14.8092C18.5 15.1552 18.3931 15.4402 18.1794 15.6641C17.9656 15.888 17.6936 16 17.3632 16C17.0329 16 16.7608 15.888 16.5471 15.6641L12 10.9008L7.45292 15.6641C7.23916 15.888 6.96712 16 6.63677 16C6.30643 16 6.03438 15.888 5.82063 15.6641C5.60688 15.4402 5.5 15.1552 5.5 14.8092C5.5 14.4631 5.60688 14.1781 5.82063 13.9542Z" fill="#252525"/>
</g>
</svg>
