<svg width="61" height="60" viewBox="0 0 61 60" fill="none" xmlns="http://www.w3.org/2000/svg">
<g id="Consultation">
<g id="Group">
<path id="Vector" d="M39.3406 22.7482C41.8935 22.7482 43.9702 20.6714 43.9702 18.1185C43.9702 15.5656 41.8935 13.4889 39.3406 13.4889C36.7877 13.4889 34.7109 15.5656 34.7109 18.1185C34.7109 20.671 36.7877 22.7482 39.3406 22.7482ZM39.3406 15.3407C40.8721 15.3407 42.1184 16.587 42.1184 18.1185C42.1184 19.6501 40.8721 20.8963 39.3406 20.8963C37.809 20.8963 36.5628 19.6501 36.5628 18.1185C36.5628 16.587 37.809 15.3407 39.3406 15.3407Z" fill="#13297E"/>
<path id="Vector_2" d="M53.1854 32.611H48.0651V32.2129C48.0651 27.5213 45.6522 23.501 43.6759 23.501H34.7779C32.8021 23.501 30.3888 27.5213 30.3888 32.2129V32.6118H27.6603C27.4234 30.7008 27.0344 29.095 26.3954 28.5072C25.3289 27.5238 23.265 26.9869 19.899 26.8145C19.8833 26.8136 19.8692 26.8219 19.8527 26.8219C19.8349 26.8219 19.8213 26.8136 19.8035 26.8145C16.4379 26.9877 14.374 27.5246 13.3071 28.5072C12.668 29.095 12.2795 30.7008 12.0422 32.6118H7.81482C6.53873 32.6118 5.5 33.6498 5.5 34.9266C5.5 36.2035 6.53877 37.2415 7.81482 37.2415H11.7277C11.6897 38.6341 11.6918 39.9155 11.7046 40.8324C11.7046 42.3407 13.1084 43.5668 14.8527 43.6176V54.0739C14.8527 54.586 15.2678 54.9998 15.7787 54.9998H18.5564C19.0674 54.9998 19.4824 54.586 19.4824 54.0739V43.7312H20.2231V54.0739C20.2231 54.586 20.6381 54.9998 21.149 54.9998H23.9268C24.4377 54.9998 24.8527 54.586 24.8527 54.0739V43.6163C26.5971 43.5654 28.0009 42.3395 28.0009 40.8431C28.0137 39.9217 28.0158 38.6358 27.9777 37.2393L53.1852 37.2398C54.4613 37.2398 55.5 36.2018 55.5 34.9249C55.5 33.6481 54.4612 32.611 53.1852 32.611L53.1854 32.611ZM32.2404 32.2129C32.2404 28.248 34.1902 25.4971 34.7776 25.3528L43.6434 25.3499C44.263 25.4971 46.2128 28.248 46.2128 32.2129V32.6118H44.4812V29.2876C44.4812 28.7754 44.0662 28.3616 43.5553 28.3616C43.0444 28.3616 42.6294 28.7754 42.6294 29.2876V32.6118H35.8239V29.2876C35.8239 28.7754 35.4089 28.3616 34.8979 28.3616C34.387 28.3616 33.972 28.7754 33.972 29.2876V32.6118H32.2405L32.2404 32.2129ZM7.81496 35.3888C7.5595 35.3888 7.352 35.1805 7.352 34.9259C7.352 34.6712 7.5595 34.4629 7.81496 34.4629H11.8643C11.842 34.7713 11.8217 35.0788 11.8039 35.3888H7.81496ZM23.0002 53.1476H22.0742V42.8049C22.0742 42.2928 21.6592 41.879 21.1483 41.879H18.5557C18.0448 41.879 17.6298 42.2928 17.6298 42.8049V53.1476H16.7039V33.5454H23.0002V53.1476ZM26.1483 40.8312C26.1483 41.2561 25.6196 41.7236 24.852 41.7662V32.6197C24.852 32.1076 24.437 31.6938 23.9261 31.6938H15.7779C15.267 31.6938 14.852 32.1076 14.852 32.6197V41.7662C14.0844 41.7236 13.5557 41.2561 13.5557 40.8187C13.5355 39.3492 13.5603 37.7983 13.6243 36.3383C13.6243 36.3301 13.6289 36.3226 13.6289 36.3143C13.6289 36.3098 13.626 36.3053 13.626 36.2995C13.7678 33.1179 14.0972 30.3764 14.5622 29.868C14.9603 29.5014 16.1789 28.8599 19.8511 28.666C23.5234 28.8595 24.742 29.501 25.1343 29.8623C25.6027 30.3745 25.9333 33.1171 26.0759 36.3013C26.0759 36.3058 26.0731 36.3095 26.0731 36.3133C26.0731 36.3207 26.0768 36.3261 26.0776 36.3335C26.1437 37.7996 26.1685 39.3559 26.1483 40.8313L26.1483 40.8312ZM53.1854 35.3884H27.8996C27.8819 35.0784 27.8624 34.7708 27.8393 34.4625H53.1853C53.4408 34.4625 53.6483 34.6708 53.6483 34.9254C53.6483 35.1801 53.4408 35.3884 53.1854 35.3884Z" fill="#13297E"/>
<path id="Vector_3" d="M12.9073 14.1285H24.555C26.043 18.0451 28.6856 20.1925 32.0483 20.1925C32.0549 20.1917 32.0603 20.1917 32.0669 20.1925C32.5778 20.1925 32.9928 19.7787 32.9928 19.2666C32.9928 18.9797 32.8622 18.723 32.6568 18.5527C32.3624 18.1914 31.265 16.7472 30.2762 14.1284H32.0483C32.5592 14.1284 32.9742 13.7147 32.9742 13.2025L32.9746 5.92568C32.9746 5.41353 32.5596 4.99976 32.0487 4.99976H12.9069C12.396 4.99976 11.981 5.41353 11.981 5.92568V13.2025C11.981 13.7147 12.396 14.1284 12.9069 14.1284L12.9073 14.1285ZM13.8332 6.85162H31.1232V12.2766H28.9758C28.6802 12.2766 28.4025 12.4171 28.2284 12.6552C28.0544 12.8942 28.0036 13.2005 28.0933 13.4832C28.7092 15.4239 29.4219 16.9017 30.0237 17.9479C27.9068 17.0637 26.7292 14.8422 26.0868 12.9106C25.9608 12.532 25.6073 12.2765 25.208 12.2765H13.8334L13.8332 6.85162Z" fill="#13297E"/>
<path id="Vector_4" d="M29.1482 9.6293C29.1482 10.1406 28.7336 10.5552 28.2223 10.5552C27.7106 10.5552 27.2964 10.1406 27.2964 9.6293C27.2964 9.11797 27.7106 8.70337 28.2223 8.70337C28.7336 8.70337 29.1482 9.11797 29.1482 9.6293Z" fill="#13297E"/>
<path id="Vector_5" d="M24.3883 8.70337C23.8791 8.70337 23.4624 9.12004 23.4624 9.6293C23.4624 10.1386 23.8791 10.5552 24.3883 10.5552C24.9067 10.5552 25.3143 10.1386 25.3143 9.6293C25.3143 9.12004 24.9067 8.70337 24.3883 8.70337Z" fill="#13297E"/>
<path id="Vector_6" d="M21.4903 9.6293C21.4903 10.1406 21.0757 10.5552 20.5644 10.5552C20.053 10.5552 19.6384 10.1406 19.6384 9.6293C19.6384 9.11797 20.053 8.70337 20.5644 8.70337C21.0757 8.70337 21.4903 9.11797 21.4903 9.6293Z" fill="#13297E"/>
<path id="Vector_7" d="M16.7409 8.70337C16.2225 8.70337 15.8149 9.12004 15.8149 9.6293C15.8149 10.1386 16.2225 10.5552 16.7409 10.5552C17.2501 10.5552 17.6577 10.1386 17.6577 9.6293C17.6573 9.12004 17.2501 8.70337 16.7409 8.70337Z" fill="#13297E"/>
<path id="Vector_8" d="M15.0615 21.8552C15.0615 24.4081 17.1382 26.4849 19.6912 26.4849C22.2441 26.4849 24.3208 24.4081 24.3208 21.8552C24.3208 19.3023 22.2441 17.2256 19.6912 17.2256C17.1387 17.2256 15.0615 19.3023 15.0615 21.8552ZM22.4689 21.8552C22.4689 23.3868 21.2227 24.633 19.6912 24.633C18.1596 24.633 16.9134 23.3868 16.9134 21.8552C16.9134 20.3237 18.1596 19.0774 19.6912 19.0774C21.2227 19.0774 22.4689 20.3237 22.4689 21.8552Z" fill="#13297E"/>
</g>
</g>
</svg>
