<svg xmlns="http://www.w3.org/2000/svg" width="14" height="12" viewBox="0 0 14 12" fill="none">
  <path d="M5.91246 7.20947C4.15215 8.5016 3.02732 9.74925 2.53847 11.0412C1.80498 12.6897 0.435817 11.7987 0.338023 10.9075C0.191309 9.34811 3.46747 6.9421 4.73886 6.00645C2.88076 4.046 1.95154 2.53124 1.85372 1.50646C1.70701 0.0806597 3.36958 -0.231188 3.85855 0.437157C4.49423 1.32831 4.15198 2.84323 6.25461 5.02627C8.40614 3.46687 9.87291 2.1302 10.5576 0.927158C11.4378 -0.543206 12.9048 0.0360094 13.0026 1.01628C13.0515 1.64006 11.2423 3.42236 7.47709 6.27387C8.94407 7.65511 11.3888 9.43734 13.0026 10.1056C14.3718 10.7294 13.3448 11.7541 12.4158 11.7096C11.2912 11.7096 8.55298 9.74912 5.91239 7.20959L5.91246 7.20947Z" fill="#E12454"/>
</svg>