<svg width="48" height="48" viewBox="0 0 48 48" fill="none" xmlns="http://www.w3.org/2000/svg">
<g id="doctor">
<g id="Group">
<path id="Vector" fill-rule="evenodd" clip-rule="evenodd" d="M34.9266 13.4567C34.9266 17.2066 33.971 22.0974 32.501 21.3552C31.8999 23.2694 30.6379 24.9218 28.9293 26.0317C27.2208 27.1416 25.1709 27.6406 23.1279 27.4441C21.0848 27.2475 19.1744 26.3675 17.7212 24.9535C16.268 23.5394 15.3614 21.6785 15.1554 19.6867C13.6966 17.1979 11.7832 12.2107 16.7021 8.32316C16.791 8.29499 16.8443 8.06096 16.9243 7.71641C17.2288 6.41299 17.9032 3.51577 22.1577 4.06942C25.4388 4.49523 34.9266 6.14645 34.9266 13.4567ZM30.6977 15.8208C30.6977 15.8208 30.1954 17.2532 30.6666 18.8492C30.6604 20.5508 29.9703 22.1824 28.7443 23.3934C27.5183 24.6044 25.8543 25.2984 24.1094 25.3264C22.3645 25.3543 20.678 24.714 19.4119 23.5428C18.1458 22.3717 17.4011 20.7632 17.3377 19.0626C17.4988 18.4667 17.4988 17.458 17.4977 16.3366C17.4966 14.3137 17.4943 11.9268 18.4443 10.9538C25.0988 15.2758 30.6977 15.8208 30.6977 15.8208Z" fill="#13297E"/>
<path id="Vector_2" d="M11.7778 37.4991C11.7778 36.3268 12.4144 35.2997 13.37 34.7276C13.3336 34.5927 13.2995 34.4573 13.2678 34.3213C13.0992 33.5811 12.9675 32.8333 12.8733 32.0806C12.7779 31.3595 12.7204 30.6341 12.7011 29.9072C8.01111 31.7025 4 34.8316 4 38.1167V44H44V38.1167C44 34.9703 40.3222 31.968 35.8911 30.1423V30.1726C35.9111 30.8336 35.8733 31.592 35.8 32.3212C35.7333 32.9973 35.6344 33.6712 35.5156 34.2487H36.2222C36.4285 34.2488 36.6307 34.3049 36.8061 34.4107C36.9816 34.5165 37.1233 34.6679 37.2156 34.8479L38.3267 37.0148C38.4044 37.1654 38.4444 37.3312 38.4444 37.4991V39.6661C38.4444 39.9534 38.3274 40.229 38.119 40.4322C37.9106 40.6354 37.628 40.7496 37.3333 40.7496H35.1111V38.5826H36.2222V37.7548L35.5356 36.4156H32.4644L31.7778 37.7548V38.5826H32.8889V40.7496H30.6667C30.372 40.7496 30.0894 40.6354 29.881 40.4322C29.6726 40.229 29.5556 39.9534 29.5556 39.6661V37.4991C29.5556 37.3312 29.5956 37.1654 29.6733 37.0148L30.7844 34.8479C30.8767 34.6679 31.0184 34.5165 31.1939 34.4107C31.3693 34.3049 31.5715 34.2488 31.7778 34.2487H33.2389C33.2633 34.1555 33.2878 34.0526 33.3122 33.9388C33.4233 33.4285 33.5222 32.7817 33.5889 32.1132C33.6556 31.4436 33.6867 30.7794 33.67 30.2333C33.6658 30.0071 33.6477 29.7813 33.6156 29.5572C33.5911 29.4034 33.5667 29.3329 33.5622 29.3178C33.5611 29.3145 33.56 29.3134 33.5622 29.3156L33.5656 29.3145C32.976 29.1359 32.3796 28.9794 31.7778 28.8454C31.2189 28.7208 30.6411 29.4705 30.3889 29.9397H17.3333C17.3009 29.8793 17.269 29.8186 17.2378 29.7577C17.0022 29.3004 16.7122 28.736 16.2222 28.8454C15.7944 28.9396 15.3667 29.048 14.9389 29.1672C14.9251 29.3572 14.9192 29.5477 14.9211 29.7382C14.9256 30.3373 14.9844 31.0708 15.0789 31.8119C15.1733 32.5509 15.3011 33.2703 15.4344 33.838C15.4722 34.0017 15.51 34.149 15.5456 34.2758C16.1808 34.3572 16.7785 34.6154 17.2671 35.0195C17.7558 35.4236 18.1146 35.9565 18.3007 36.5543C18.4868 37.1522 18.4923 37.7896 18.3165 38.3904C18.1407 38.9912 17.791 39.5298 17.3094 39.9419C16.8278 40.3539 16.2346 40.6219 15.6009 40.7136C14.9671 40.8054 14.3197 40.7172 13.736 40.4595C13.1524 40.2017 12.6573 39.7854 12.31 39.2604C11.9627 38.7354 11.7779 38.1239 11.7778 37.4991Z" fill="#13297E"/>
<path id="Vector_3" d="M16.2222 37.499C16.2222 38.1209 15.7089 38.5987 15.1111 38.5987C14.5133 38.5987 14 38.122 14 37.499C14 36.877 14.5133 36.3992 15.1111 36.3992C15.7089 36.3992 16.2222 36.876 16.2222 37.499Z" fill="#13297E"/>
</g>
</g>
</svg>
