<svg width="64" height="64" viewBox="0 0 64 64" fill="none" xmlns="http://www.w3.org/2000/svg">
<g id="game-icons:caduceus">
<path id="Vector" d="M25.9712 5.33422C25.725 5.3416 25.4408 5.39971 25.0943 5.5207C19.9898 7.30358 12.2191 11.9953 5.33325 14.0967C6.55479 14.8603 7.88579 15.534 9.26415 16.0683C10.805 15.3548 12.3099 14.6453 13.5858 13.9335C15.1481 13.0621 16.3546 12.1547 16.8571 11.4139L18.3425 12.4394C17.5179 13.6552 16.1167 14.5969 14.4567 15.5228C13.6313 15.9832 12.7382 16.4319 11.8166 16.8739C12.662 17.0792 13.5113 17.2246 14.3516 17.2946C14.7316 17.3264 15.1089 17.3434 15.483 17.3464C17.2656 16.2311 18.9523 14.7915 19.4959 13.7562L21.0864 14.6061C20.6967 15.3484 20.11 16.0619 19.4064 16.728C21.1648 16.104 22.7579 14.976 24.0797 13.1978L24.8937 12.1029L25.5772 13.2851C26.1064 14.2004 26.8196 14.9662 27.6287 15.6253C28.2285 15.5326 28.7575 15.4693 29.2999 15.4381V11.92C28.2086 11.0895 27.4999 9.77144 27.4999 8.29467C27.4996 7.69826 27.6169 7.10775 27.845 6.55754C27.5594 6.15427 27.2645 5.83703 26.9683 5.64136C26.724 5.47984 26.4817 5.37066 26.1874 5.34137C26.1156 5.33453 26.0434 5.33214 25.9712 5.33422ZM37.9253 5.33422C37.8869 5.33536 37.8492 5.33763 37.8124 5.34137C37.5181 5.37066 37.2759 5.47984 37.0315 5.64136C36.7352 5.83703 36.4404 6.15438 36.1548 6.55754C36.3829 7.10775 36.5002 7.69826 36.5 8.29467C36.5 9.77144 35.7912 11.0895 34.6999 11.92V15.4381C35.2628 15.4709 35.876 15.5439 36.3711 15.6253C37.1803 14.9662 37.8934 14.2004 38.4226 13.2851L39.1062 12.1029L39.92 13.1978C41.2419 14.976 42.835 16.104 44.5934 16.728C43.8898 16.0619 43.303 15.3484 42.9134 14.6061L44.504 13.7562C45.0476 14.7916 46.7343 16.2311 48.5169 17.3463C48.8945 17.3434 49.2719 17.3262 49.6483 17.2947C50.4887 17.2245 51.3378 17.0791 52.1833 16.8739C51.2617 16.4319 50.3685 15.9832 49.543 15.5228C47.8831 14.5969 46.4821 13.6552 45.6573 12.4394L47.1428 11.4139C47.6452 12.1547 48.8517 13.0621 50.4141 13.9336C51.6898 14.6453 53.1949 15.3547 54.7357 16.0684C56.1141 15.534 57.4451 14.8603 58.6666 14.0967C51.7807 11.9953 44.0101 7.30369 38.9056 5.5207C38.5096 5.38235 38.1949 5.3265 37.9253 5.33434V5.33422ZM31.9999 5.66791C30.498 5.66791 29.2999 6.8767 29.2999 8.39194C29.2999 9.90718 30.498 11.116 31.9999 11.116C33.5018 11.116 34.6999 9.90718 34.6999 8.39194C34.6999 6.8767 33.5018 5.66791 31.9999 5.66791ZM31.0999 12.7427V15.5393C31.4141 15.6081 31.7478 15.7221 31.9999 15.8674C32.3015 15.699 32.5939 15.6102 32.8999 15.5393V12.7427C32.6089 12.8028 32.3078 12.8346 31.9999 12.8346C31.692 12.8346 31.391 12.8028 31.0999 12.7427ZM29.6884 17.2434C29.5129 17.2456 29.3375 17.2531 29.1625 17.2661C27.7155 17.3731 25.9223 17.8427 25.1853 18.1952C23.5082 18.9972 22.8061 19.7604 22.4611 20.4638C22.116 21.1673 22.0998 21.9169 22.0998 22.8228C22.0998 23.8821 22.5835 24.6636 23.4663 25.412C24.3492 26.1604 25.6215 26.79 26.9313 27.3132C29.3493 28.5938 31.8996 29.9171 33.9118 31.3974C34.4647 31.7918 35.1699 32.0396 35.7116 32.3256C36.2422 31.7627 36.5 31.2439 36.5 30.7679C36.5 30.4841 36.4249 30.1707 36.287 29.8392C34.9129 27.2194 32.3297 25.9558 29.6143 24.4457L29.6079 24.4528C28.4412 23.9962 27.3563 23.7308 26.5999 23.7308L26.1973 22.0105C27.9786 21.112 29.2838 20.3587 30.0604 19.6409C30.8205 18.9386 31.1028 18.3637 31.0964 17.449C30.6456 17.2497 30.1338 17.2388 29.6884 17.2434ZM34.3115 17.2434C33.8419 17.2594 33.2653 17.2507 32.9034 17.4489C32.897 18.3637 33.1794 18.9386 33.9396 19.6409C34.716 20.3587 36.0213 21.112 37.8025 22.0105L37.4 23.7308C36.5041 23.7308 35.1486 24.1019 33.7409 24.7233C34.8715 25.4533 35.9458 26.3039 36.8344 27.4032C36.9126 27.3727 36.9905 27.3444 37.0687 27.3132C38.3784 26.79 39.6506 26.1604 40.5336 25.412C41.4163 24.6636 41.9 23.882 41.9 22.8228C41.9 21.9169 41.8838 21.1673 41.5389 20.4638C41.1937 19.7604 40.4916 18.9972 38.8146 18.1952C38.0777 17.8427 36.2843 17.3731 34.8373 17.2661C34.6623 17.2531 34.4869 17.2456 34.3115 17.2434ZM31.9999 20.17C31.7854 20.4632 31.543 20.7345 31.2761 20.9801C31.2189 21.033 31.1597 21.0852 31.0999 21.1371V23.0836C31.4042 23.2235 31.7047 23.3719 32.0008 23.5286C32.2965 23.3721 32.5963 23.2237 32.8999 23.0836V21.1371C32.8404 21.0857 32.7817 21.0334 32.7238 20.9801C32.4569 20.7345 32.2145 20.4632 31.9999 20.17ZM27.777 29.6923C27.5976 30.0782 27.4999 30.4425 27.4999 30.7679C27.4999 31.3165 27.8408 31.9216 28.5486 32.5856C29.2565 33.2496 30.2775 33.9097 31.3258 34.5219C32.3741 35.1343 33.4444 35.7001 34.3039 36.2629C34.7337 36.5444 35.1127 36.8214 35.4284 37.1494C35.7441 37.4774 36.05 37.8995 36.05 38.486C36.05 38.9684 35.808 39.4268 35.522 39.7122C35.2359 39.9978 34.9193 40.1734 34.5912 40.3328C34.3332 40.4581 34.0613 40.5716 33.7856 40.6844C34.5234 41.2315 35.2026 41.8254 35.7507 42.4132C36.0567 42.2717 36.3659 42.1298 36.6711 41.9811C37.4566 41.5986 38.197 41.1723 38.6882 40.7052C39.1795 40.2381 39.425 39.8006 39.425 39.167C39.425 38.0382 39.0202 37.1868 38.3465 36.4093C37.6729 35.6315 36.7162 34.9664 35.7182 34.3951C34.7203 33.8236 33.6937 33.3494 32.8564 32.8698C32.4378 32.6301 32.0638 32.3938 31.7417 32.0889C31.7253 32.0733 31.7091 32.0559 31.6928 32.0397C30.5134 31.2406 28.993 30.3074 27.777 29.6923ZM28.0476 34.5327C27.1356 35.0729 26.274 35.6927 25.6533 36.4093C24.9796 37.1867 24.5749 38.0382 24.5749 39.167C24.5749 39.8007 24.8203 40.2381 25.3116 40.7052C25.8028 41.1723 26.5433 41.5986 27.3288 41.9812C27.6258 42.1258 27.925 42.2642 28.222 42.4021C30.3653 43.5129 32.3508 44.5708 34.2954 45.1049C34.7492 44.9491 34.8408 44.5223 34.7382 44.0007C33.0669 42.3046 31.3848 41.299 29.4087 40.3328C29.0805 40.1734 28.7639 39.9978 28.4779 39.7122C28.1919 39.4268 27.9499 38.9684 27.9499 38.486C27.9499 37.8995 28.2559 37.4775 28.5715 37.1494C28.8871 36.8214 29.266 36.5444 29.6959 36.2629C29.8582 36.1573 30.0222 36.0544 30.1879 35.9541C29.4532 35.5194 28.715 35.0536 28.0476 34.5327ZM31.9999 36.994C31.6793 37.1773 31.3744 37.3538 31.0999 37.5207V39.0645C31.1843 39.1038 31.2691 39.1455 31.3539 39.1873C31.5615 39.2736 31.7758 39.3641 31.9997 39.4666C32.3158 39.322 32.6208 39.1955 32.8999 39.0821V37.5208C32.6023 37.341 32.3023 37.1654 31.9999 36.994ZM29.998 45.3722C30.0641 45.854 30.2864 46.2938 30.6532 46.7509C31.0956 47.3022 31.7411 47.8394 32.422 48.3466C33.103 48.8539 33.8131 49.3274 34.4069 49.841C35.0005 50.3545 35.6 50.9522 35.6 51.8791C35.6 53.0028 34.9452 53.9146 34.1409 54.9436C33.3368 55.9725 32.3015 57.0475 31.271 58.0392C31.0407 58.2608 30.8226 58.4554 30.5955 58.6668C31.5213 58.1776 32.4821 57.5848 33.3873 56.9206C35.907 55.0716 37.85 52.6466 37.85 50.9711C37.85 50.4641 37.6621 50.0582 37.2895 49.614C36.9169 49.1696 36.3591 48.7318 35.7604 48.311C35.1616 47.8899 34.5288 47.4899 33.9871 47.0207C33.9235 46.9655 33.8611 46.9089 33.7997 46.8511C32.3387 46.4592 31.1117 45.9363 29.998 45.3722ZM29.1122 47.7083C28.8227 47.911 28.5272 48.1086 28.2395 48.311C27.6408 48.7318 27.083 49.1696 26.7104 49.614C26.3379 50.0582 26.1499 50.4641 26.1499 50.9711C26.1499 51.8013 26.5958 52.8259 27.4229 53.8779C28.1414 54.7916 29.1256 55.7107 30.216 56.543C30.4081 56.3565 30.5984 56.1682 30.787 55.9782C30.4725 55.6345 30.1732 55.2912 29.9016 54.953C29.0752 53.9243 28.3999 53.0161 28.3999 51.8791C28.3999 50.9522 28.9993 50.3545 29.593 49.841C29.8725 49.5992 30.1791 49.3664 30.495 49.1347C30.0542 48.7649 29.6267 48.3576 29.2544 47.8936C29.2059 47.8328 29.1584 47.771 29.1122 47.7083ZM31.9992 50.2809C31.6734 50.5171 31.3625 50.743 31.0999 50.9474V53.5489C31.1648 53.6372 31.2314 53.7242 31.2998 53.8097C31.5192 54.0829 31.7648 54.3668 32.0274 54.656C32.2794 54.3701 32.5166 54.0891 32.7277 53.819C32.788 53.7418 32.8447 53.6654 32.8999 53.5894V50.9474C32.636 50.7419 32.3273 50.5186 31.9992 50.2809Z" fill="#13297E"/>
</g>
</svg>
