<svg width="65" height="64" viewBox="0 0 65 64" fill="none" xmlns="http://www.w3.org/2000/svg">
<g id="happy">
<g id="Group">
<path id="Vector" fill-rule="evenodd" clip-rule="evenodd" d="M32.3332 55.7036C45.425 55.7036 56.0369 45.0918 56.0369 31.9999C56.0369 18.9081 45.425 8.29622 32.3332 8.29622C19.2413 8.29622 8.62947 18.9081 8.62947 31.9999C8.62947 45.0918 19.2413 55.7036 32.3332 55.7036ZM32.3332 58.6666C47.0606 58.6666 58.9998 46.7273 58.9998 31.9999C58.9998 17.2725 47.0606 5.33325 32.3332 5.33325C17.6058 5.33325 5.6665 17.2725 5.6665 31.9999C5.6665 46.7273 17.6058 58.6666 32.3332 58.6666Z" fill="#13297E"/>
<path id="Vector_2" fill-rule="evenodd" clip-rule="evenodd" d="M21.5108 37.9259C23.8146 43.6029 28.059 46.8147 32.3331 46.8147C36.6086 46.8147 40.8516 43.6029 43.1553 37.9259H21.5108ZM32.3331 49.7777C26.3508 49.7777 21.1657 45.2621 18.6175 38.6666C18.5926 38.603 18.5679 38.5393 18.5434 38.4755C17.8827 36.711 19.296 34.9629 21.182 34.9629H43.4857C45.3716 34.9629 46.7864 36.711 46.1227 38.4755C46.0987 38.5393 46.0745 38.603 46.0501 38.6666C43.5005 45.2621 38.3153 49.7777 32.3331 49.7777Z" fill="#13297E"/>
<path id="Vector_3" d="M28.336 29.6918C28.5286 29.1614 28.4708 28.514 28.3123 27.9244C28.1215 27.2453 27.8158 26.604 27.4086 26.0281C26.5479 24.7999 25.1212 23.6725 23.1938 23.5896C21.1982 23.5066 19.7079 24.7733 18.7894 26.117C18.3482 26.7637 18.0015 27.4701 17.7597 28.2147C17.5479 28.8755 17.4353 29.551 17.5094 30.0918C17.5264 30.2151 17.5742 30.3321 17.6484 30.432C17.7226 30.532 17.8207 30.6116 17.9338 30.6635C18.0469 30.7155 18.1713 30.7382 18.2954 30.7294C18.4196 30.7206 18.5395 30.6806 18.6442 30.6133C19.2368 30.234 19.8575 29.714 20.4323 29.234C20.6931 29.0147 20.9464 28.8044 21.1805 28.6192C22.0131 27.9614 22.6619 27.5866 23.1982 27.5599C23.7094 27.5347 24.299 27.8266 25.0427 28.3836C25.3094 28.5821 25.5671 28.7925 25.8338 29.0118L26.1227 29.2473C26.4842 29.5392 26.8694 29.8384 27.2575 30.0725C27.3511 30.129 27.4561 30.164 27.5649 30.1751C27.6736 30.1862 27.7835 30.1731 27.8866 30.1367C27.9897 30.1003 28.0835 30.0415 28.1612 29.9646C28.2389 29.8877 28.2986 29.7945 28.336 29.6918ZM36.2042 29.6918C36.0116 29.1614 36.0708 28.514 36.2294 27.9244C36.3953 27.3081 36.7019 26.6459 37.1331 26.0281C37.9923 24.7999 39.4205 23.6725 41.3479 23.5896C43.3419 23.5066 44.8338 24.7733 45.7523 26.117C46.2175 26.7984 46.5642 27.5362 46.7819 28.2147C46.9923 28.8755 47.1049 29.551 47.0308 30.0918C47.0137 30.2148 46.9659 30.3316 46.8918 30.4313C46.8177 30.5311 46.7197 30.6106 46.6068 30.6625C46.4939 30.7145 46.3698 30.7372 46.2459 30.7286C46.1219 30.7199 46.0021 30.6803 45.8975 30.6133C45.3049 30.234 44.6827 29.714 44.1094 29.234C43.8627 29.0258 43.6133 28.8208 43.3612 28.6192C42.5271 27.9614 41.8797 27.5866 41.3419 27.5599C40.8308 27.5347 40.2412 27.8266 39.499 28.3836C39.2323 28.5821 38.9745 28.7925 38.7079 29.0118L38.4175 29.2473C38.0585 29.5473 37.6799 29.823 37.2842 30.0725C37.1905 30.1293 37.0854 30.1645 36.9764 30.1758C36.8675 30.187 36.7574 30.1739 36.6541 30.1375C36.5508 30.1011 36.4569 30.0423 36.3791 29.9652C36.3013 29.8881 36.2416 29.7947 36.2042 29.6918Z" fill="#13297E"/>
</g>
</g>
</svg>
