<svg xmlns="http://www.w3.org/2000/svg" width="56" height="56" viewBox="0 0 56 56" fill="none">
  <path d="M28.239 37.3144C29.6608 36.4316 36.6663 32.0959 37.595 27.0109C38.641 21.2828 31.3814 18.4785 27.9993 21.8723C24.6172 18.4785 17.3572 21.2832 18.4037 27.0113C19.332 32.0963 26.3379 36.4321 27.7597 37.3148C27.9067 37.406 28.092 37.406 28.239 37.3144ZM33.0935 22.8907C33.1368 22.8922 33.2016 22.893 33.2819 22.9039C33.4436 22.9231 33.6732 22.9729 33.9351 23.0814C34.0644 23.1376 34.2043 23.2047 34.3426 23.2929C34.4809 23.3807 34.6234 23.4832 34.7561 23.6068C34.8918 23.7278 35.0184 23.8692 35.133 24.0233C35.2487 24.1771 35.3478 24.3475 35.4327 24.5235C35.476 24.6113 35.5073 24.7041 35.5446 24.7938C35.5763 24.8854 35.6034 24.9781 35.6283 25.0704C35.6754 25.2555 35.7029 25.4406 35.7169 25.6189C35.7199 25.7082 35.7278 25.7956 35.7263 25.8812C35.7225 25.9668 35.7206 26.0497 35.715 26.1307C35.7082 26.2114 35.6969 26.2887 35.6867 26.3637C35.681 26.401 35.6754 26.4375 35.6697 26.4733C35.6622 26.5088 35.6554 26.5438 35.6471 26.5777C35.6309 26.6456 35.6166 26.7104 35.6004 26.7715C35.5823 26.8322 35.5638 26.8891 35.5454 26.9426C35.5096 27.0493 35.4756 27.1405 35.4398 27.2136C35.407 27.2871 35.3765 27.3437 35.3576 27.3821C35.338 27.4205 35.3264 27.4405 35.3264 27.4405C35.3264 27.4405 35.3222 27.4172 35.3169 27.3742C35.3124 27.3316 35.3026 27.2683 35.2962 27.1899C35.2906 27.1115 35.2792 27.0169 35.2676 26.9098C35.2623 26.8567 35.257 26.8005 35.2514 26.741C35.2438 26.6822 35.2359 26.6207 35.228 26.5563C35.2235 26.5242 35.2212 26.4918 35.2174 26.4586C35.2122 26.4258 35.2069 26.3923 35.2012 26.3584C35.1895 26.2905 35.1835 26.2208 35.1699 26.1503C35.1552 26.0798 35.1439 26.0075 35.1304 25.9343C35.1142 25.8623 35.0979 25.7885 35.0814 25.7138C35.064 25.6396 35.0414 25.5661 35.0229 25.4907C35.0143 25.4526 34.9999 25.4164 34.9879 25.3795C34.9766 25.3422 34.9653 25.3053 34.9536 25.2676C34.9283 25.1937 34.8974 25.1213 34.8722 25.0471C34.8398 24.9758 34.813 24.9016 34.7768 24.8318C34.7433 24.761 34.7108 24.6893 34.6709 24.6226C34.6509 24.5891 34.6347 24.5533 34.6143 24.5205L34.554 24.421C34.5352 24.3871 34.5114 24.3565 34.4903 24.3245C34.4689 24.2924 34.4493 24.2593 34.4266 24.2287C34.3807 24.1677 34.3373 24.1055 34.2902 24.0474C34.1982 23.9291 34.0998 23.8198 34.003 23.7176C33.9065 23.6147 33.807 23.5228 33.7139 23.4368C33.525 23.268 33.3532 23.1323 33.228 23.0388C33.1654 22.9924 33.1153 22.954 33.0799 22.9302C33.0444 22.9054 33.0256 22.8922 33.0256 22.8922C33.0267 22.8922 33.0501 22.8896 33.0935 22.8907Z" fill="#13297E"/>
  <path d="M26.1066 17.0003L26.1066 17.0003C25.9875 17.5199 25.5061 17.9307 24.9973 17.7634C24.9973 17.7634 24.9973 17.7634 24.9973 17.7634L23.3384 17.2181C23.3383 17.2181 23.3382 17.218 23.3382 17.218C23.3382 17.218 23.3382 17.218 23.3382 17.218C23.0618 17.1274 22.8801 16.8884 22.8085 16.6192L22.8085 16.6192C22.7909 16.5528 22.7793 16.4833 22.7747 16.4118L22.7747 16.4116C22.7679 16.3038 22.7761 16.1914 22.802 16.0784L22.802 16.0783C22.845 15.8911 22.9309 15.7242 23.0453 15.5917L23.0457 15.5912L23.0457 15.5912C23.0955 15.5339 23.1505 15.4835 23.2092 15.4405L23.2098 15.44L23.2098 15.44C23.3718 15.3221 23.5717 15.2573 23.7809 15.2851L23.781 15.2851L25.512 15.5162L26.1066 17.0003ZM26.1066 17.0003L26.1786 16.686M26.1066 17.0003L26.1786 16.686M26.1786 16.686C26.2976 16.1665 26.0432 15.5868 25.5122 15.5162L26.1786 16.686Z" fill="#13297E" stroke="#13297E" stroke-width="0.4"/>
  <path d="M32.6606 17.2188L32.6604 17.2189L31.0013 17.7643L32.6606 17.2188ZM32.6606 17.2188C32.9366 17.1279 33.1184 16.8895 33.19 16.6197L32.6606 17.2188ZM33.1966 16.0792C33.1537 15.8922 33.0682 15.7251 32.953 15.5922L32.9529 15.5921C32.9037 15.5354 32.8484 15.4841 32.788 15.4406C32.6257 15.3226 32.426 15.2587 32.2173 15.2864L32.2172 15.2864L30.486 15.5174L30.486 15.5175C29.9552 15.5884 29.7006 16.1679 29.8196 16.6872L32.6707 15.6026C32.7178 15.6365 32.7619 15.6772 32.8019 15.7232M33.1966 16.0792L33.0017 16.1239M33.1966 16.0792C33.1966 16.0791 33.1966 16.0791 33.1966 16.0791L33.0017 16.1239M33.1966 16.0792C33.2225 16.1919 33.2307 16.3044 33.2239 16.4124L33.2239 16.4128C33.2192 16.4839 33.2077 16.5533 33.1901 16.6196L32.9968 16.5683C33.0111 16.5144 33.0205 16.4579 33.0243 16.3998C33.0299 16.3105 33.0231 16.2174 33.0017 16.1239M33.0017 16.1239C32.9658 15.9678 32.895 15.8306 32.8019 15.7232M32.8019 15.7232L32.8019 15.7232L32.8019 15.7232Z" fill="#13297E" stroke="#13297E" stroke-width="0.4"/>
  <path d="M22.6819 15.3442L22.8695 15.3542L22.8712 15.5421L22.8712 15.5427L22.8717 15.6017L22.8402 15.6515C22.759 15.7799 22.6967 15.9099 22.6645 16.0488C22.6364 16.1724 22.6267 16.2977 22.6345 16.4214C22.6348 16.4258 22.6357 16.4325 22.6385 16.447C22.6389 16.4491 22.6394 16.4516 22.64 16.4545C22.6426 16.4675 22.6467 16.4878 22.6494 16.5069L22.6836 16.7437L22.4445 16.7353C20.8088 16.6779 19.1334 17.1315 17.6672 18.1035L22.6819 15.3442ZM22.6819 15.3442C22.4244 15.3304 22.1643 15.3253 21.9014 15.3334L21.9076 15.5333M22.6819 15.3442L21.9076 15.5333M21.9076 15.5333L21.9014 15.3334C20.1199 15.3885 18.3877 15.9418 16.8921 16.9335C15.3825 17.9345 14.2102 19.3296 13.5029 20.968L13.5029 20.9681M21.9076 15.5333L13.5029 20.9681M13.5029 20.9681C12.7184 22.7861 12.5246 24.807 12.9195 26.97L12.9195 26.97M13.5029 20.9681L12.9195 26.97M12.9195 26.97C13.5853 30.6165 15.911 34.2225 19.7966 37.6926C20.2828 38.1268 20.7689 38.5309 21.2499 38.9182L21.4107 39.0477M12.9195 26.97L21.4107 39.0477M21.4107 39.0477L21.535 38.8828M21.4107 39.0477L21.535 38.8828M21.535 38.8828L22.1107 38.1193L21.535 38.8828Z" fill="#13297E" stroke="#13297E" stroke-width="0.4"/>
  <path d="M33.8915 38.1011C33.8903 38.0999 33.889 38.0986 33.8877 38.0972C33.8829 38.0922 33.8763 38.085 33.8693 38.0758L33.7507 37.9207L33.9029 37.7984C39.3588 33.4159 41.1962 29.4763 41.7001 26.7176L33.8915 38.1011ZM33.8915 38.1011L34.4737 38.8741L34.598 39.0391L34.7589 38.9095C35.237 38.5245 35.72 38.1227 36.2028 37.6915C36.2028 37.6915 36.2028 37.6915 36.2028 37.6915L36.0696 37.5423M33.8915 38.1011L42.4956 20.9662M36.0696 37.5423C39.9356 34.0901 42.2281 30.5209 42.8832 26.933C43.2694 24.8151 43.0815 22.8437 42.3239 21.0728L42.5108 21.0225L42.5108 21.0218L42.3147 21.0451L42.4959 20.9669C42.4958 20.9667 42.4957 20.9664 42.4956 20.9662C42.4956 20.9662 42.4956 20.9662 42.4956 20.9662M36.0696 37.5423C35.6423 37.9239 35.2144 38.2828 34.7891 38.6279M36.0696 37.5423L34.7891 38.6279M42.4956 20.9662C41.7882 19.3276 40.6152 17.9328 39.1054 16.9319L39.1054 16.9319C37.6095 15.9406 35.8769 15.3873 34.0955 15.3329L42.4956 20.9662ZM34.7891 38.6279L34.7932 38.6334L34.6335 38.7537L34.7891 38.6279Z" fill="#13297E" stroke="#13297E" stroke-width="0.4"/>
  <path d="M51.6493 18.0093L51.8335 17.9314C53.1825 21.121 53.8666 24.509 53.8666 28.0002C53.8666 30.941 53.3775 33.8272 52.4114 36.5769C51.5546 39.0157 50.3407 41.3018 48.799 43.3823C50.2553 45.0818 50.3672 47.6314 48.9388 49.4633C48.1498 50.4754 47.0129 51.1199 45.7394 51.2776C45.539 51.3024 45.339 51.3145 45.1401 51.3145C44.0754 51.3145 43.0469 50.9626 42.1947 50.2979C40.105 48.6684 39.7305 45.6434 41.3601 43.5537C42.7683 41.7478 45.2185 41.2238 47.2067 42.1657C50.2556 38.0453 51.8634 33.163 51.8634 28.0011C51.8634 14.8429 41.1583 4.13819 28.0011 4.13782C14.9028 4.13782 4.13036 14.9161 4.13784 28.0145C4.14358 38.4747 10.9159 47.3834 20.3068 50.5907C23.5914 51.7123 27.0054 49.2741 27.0054 45.8035V43.0254C26.0847 42.5218 23.9755 41.366 21.7091 39.6857L21.7091 39.6857C21.4962 39.5278 21.4518 39.2262 21.6115 39.014L21.6184 39.0047L21.6187 39.0049L21.6379 38.9823L22.2354 38.1864L22.2363 38.1853L22.2418 38.1778L22.2428 38.1764C22.4003 37.9671 22.6975 37.9234 22.9085 38.0799C25.0668 39.6792 27.0905 40.7872 27.9742 41.2708L27.9743 41.2709C27.9855 41.277 27.9965 41.2831 28.0075 41.289C28.0184 41.2831 28.0294 41.277 28.0406 41.2709L28.0407 41.2708C28.9248 40.7872 30.9485 39.6796 33.1068 38.0799L51.6493 18.0093ZM51.6493 18.0093L51.8335 17.9314C50.5306 14.8511 48.6653 12.0848 46.2903 9.70979C43.9152 7.33474 41.149 5.46954 38.0686 4.16694C34.8787 2.81761 31.4908 2.1335 27.9999 2.1335C24.509 2.1335 21.1208 2.81762 17.9312 4.16695C14.8509 5.46984 12.0846 7.33512 9.70917 9.71017L9.70916 9.71018M51.6493 18.0093L9.70916 9.71018M9.70916 9.71018C7.33411 12.0852 5.46892 14.8515 4.16594 17.9318L4.16592 17.9318M9.70916 9.71018L4.16592 17.9318M4.16592 17.9318C2.81736 21.1213 2.13325 24.5093 2.13325 28.0005C2.13325 31.4918 2.81738 34.8797 4.16632 38.0693L4.35052 37.9914L4.16592 17.9318ZM34.4036 39.0137L34.404 39.0142C34.5633 39.2266 34.5192 39.5277 34.3062 39.6857L34.1871 39.5251L34.3062 39.6857L34.4036 39.0137ZM34.4036 39.0137L34.3758 38.9769M34.4036 39.0137L34.3758 38.9769M34.3758 38.9769L34.3757 38.9767M34.3758 38.9769L34.3757 38.9767M34.3757 38.9767L33.7725 38.1764M34.3757 38.9767L33.7725 38.1764M33.7725 38.1764L33.7724 38.1763C33.6148 37.967 33.3178 37.9234 33.1068 38.0798L33.7725 38.1764ZM19.7951 52.5334L19.7952 52.5334L9.85097 46.1495C12.2079 48.5064 14.9425 50.3819 18.0095 51.6499L17.933 51.8348C17.9331 51.8348 17.9331 51.8348 17.9331 51.8348C18.5724 52.0992 19.1943 52.3307 19.7951 52.5334ZM46.8709 44.2989L46.871 44.2989C48.0891 45.2483 48.3072 47.0125 47.3575 48.2303C46.8971 48.8206 46.2356 49.196 45.4926 49.2878L45.5171 49.4863L45.4926 49.2878C44.7499 49.3797 44.0163 49.1772 43.4261 48.7169L43.3031 48.8745L43.4261 48.7168C42.2083 47.767 41.9898 46.0032 42.9395 44.7855L42.7818 44.6625L42.9396 44.7854C43.4909 44.0783 44.3166 43.7079 45.1519 43.7079C45.7544 43.7079 46.3605 43.9007 46.8709 44.2989Z" fill="#13297E" stroke="#13297E" stroke-width="0.4"/>
  <path d="M46.4644 44.8206C45.5338 44.0947 44.1859 44.2617 43.4603 45.1923C43.1086 45.6431 42.9537 46.2039 43.0238 46.7712C43.0939 47.3385 43.3811 47.8447 43.8319 48.1964C44.2119 48.4926 44.6698 48.6491 45.1437 48.6491C45.2322 48.6491 45.3216 48.6434 45.4109 48.6325C45.9782 48.5624 46.4844 48.2752 46.8361 47.8244C47.1877 47.3736 47.3427 46.8127 47.2726 46.2455C47.2024 45.6782 46.9152 45.172 46.4644 44.8206ZM46.2036 47.3314C45.7497 47.9133 44.9073 48.0174 44.3253 47.5639C44.0434 47.3442 43.864 47.0276 43.8203 46.6729C43.7765 46.3182 43.8734 45.9677 44.0931 45.6858C44.3566 45.3477 44.7512 45.1709 45.15 45.1709C45.4376 45.1709 45.7275 45.2632 45.9713 45.4532C46.2533 45.673 46.4327 45.9896 46.4764 46.3443C46.5201 46.6989 46.4233 47.0495 46.2036 47.3314Z" fill="#13297E"/>
</svg>