<svg width="56" height="56" viewBox="0 0 56 56" fill="none" xmlns="http://www.w3.org/2000/svg">
<g id="heart-beat">
<g id="Group">
<path id="Vector" d="M27.9998 13.4834L25.6995 11.1189C20.3 5.56859 10.3992 7.48393 6.82523 14.4619C5.27884 17.4841 4.8361 21.7447 7.17172 27.125H3.7132C-3.114 8.84745 17.0757 -1.20408 27.4352 8.33412C27.6277 8.51058 27.817 8.69345 27.9998 8.88274C28.1809 8.69362 28.3692 8.51168 28.5645 8.33733C38.9272 -1.20408 59.1137 8.84745 52.2865 27.125H48.828C51.1636 21.7447 50.7208 17.4841 49.1744 14.4619C45.6004 7.48393 35.6997 5.56538 30.3002 11.1157L27.9998 13.4834ZM9.43035 36.7498H13.6492C17.0692 40.5452 21.7437 44.6357 27.9998 48.9252C34.2528 44.6357 38.9304 40.5452 42.3504 36.7498H46.5693C42.5109 41.774 36.4953 47.1767 27.9998 52.7912C19.5043 47.1767 13.4888 41.774 9.43035 36.7498Z" fill="#13297E"/>
<path id="Vector_2" d="M35.9046 15.299C35.7802 14.9884 35.5617 14.7245 35.2798 14.5442C34.9979 14.3639 34.6667 14.2763 34.3325 14.2937C33.9984 14.311 33.678 14.4324 33.4162 14.6408C33.1545 14.8493 32.9645 15.1344 32.8728 15.4562L27.746 33.4001L23.0715 21.7155C22.9627 21.4445 22.7819 21.2083 22.5486 21.0325C22.3154 20.8566 22.0385 20.7478 21.748 20.7178C21.4574 20.6877 21.1642 20.7376 20.8999 20.862C20.6356 20.9864 20.4103 21.1805 20.2483 21.4236L14.3065 30.333H3.93739C3.51195 30.333 3.10393 30.502 2.80309 30.8028C2.50226 31.1036 2.33325 31.5117 2.33325 31.9371C2.33325 32.3625 2.50226 32.7706 2.80309 33.0714C3.10393 33.3722 3.51195 33.5412 3.93739 33.5412H15.1663C15.4305 33.5411 15.6906 33.4757 15.9234 33.3509C16.1562 33.2261 16.3546 33.0457 16.501 32.8258L21.2268 25.7387L26.5108 38.9504C26.6353 39.261 26.8537 39.5249 27.1356 39.7052C27.4175 39.8854 27.7488 39.9731 28.0829 39.9557C28.4171 39.9384 28.7375 39.817 28.9992 39.6085C29.261 39.4001 29.451 39.115 29.5426 38.7932L34.6694 20.8493L39.3439 32.5338C39.4631 32.8312 39.6686 33.0861 39.9339 33.2656C40.1992 33.4452 40.5122 33.5412 40.8325 33.5412H52.0615C52.4869 33.5412 52.895 33.3722 53.1958 33.0714C53.4966 32.7706 53.6656 32.3625 53.6656 31.9371C53.6656 31.5117 53.4966 31.1036 53.1958 30.8028C52.895 30.502 52.4869 30.333 52.0615 30.333H41.9169L35.9046 15.299Z" fill="#13297E"/>
</g>
</g>
</svg>
