<svg width="14" height="14" viewBox="0 0 14 14" fill="none" xmlns="http://www.w3.org/2000/svg">
<g id="insta">
<path id="Vector" d="M7.00008 1.16667C8.585 1.16667 8.78275 1.1725 9.40458 1.20167C10.0258 1.23083 10.4487 1.32825 10.8209 1.47292C11.2059 1.62108 11.5302 1.82175 11.8546 2.1455C12.1512 2.43711 12.3807 2.78984 12.5272 3.17917C12.6712 3.55075 12.7692 3.97425 12.7984 4.5955C12.8258 5.21733 12.8334 5.41508 12.8334 7C12.8334 8.58492 12.8276 8.78267 12.7984 9.4045C12.7692 10.0257 12.6712 10.4487 12.5272 10.8208C12.3811 11.2104 12.1516 11.5632 11.8546 11.8545C11.5629 12.151 11.2102 12.3805 10.8209 12.5271C10.4493 12.6712 10.0258 12.7692 9.40458 12.7983C8.78275 12.8257 8.585 12.8333 7.00008 12.8333C5.41516 12.8333 5.21741 12.8275 4.59558 12.7983C3.97433 12.7692 3.55141 12.6712 3.17925 12.5271C2.78977 12.3809 2.43697 12.1514 2.14558 11.8545C1.8489 11.5629 1.61937 11.2102 1.473 10.8208C1.32833 10.4492 1.23091 10.0257 1.20175 9.4045C1.17433 8.78267 1.16675 8.58492 1.16675 7C1.16675 5.41508 1.17258 5.21733 1.20175 4.5955C1.23091 3.97367 1.32833 3.55133 1.473 3.17917C1.61897 2.7896 1.84855 2.43677 2.14558 2.1455C2.43706 1.84872 2.78983 1.61918 3.17925 1.47292C3.55141 1.32825 3.97375 1.23083 4.59558 1.20167C5.21741 1.17425 5.41516 1.16667 7.00008 1.16667ZM7.00008 4.08333C6.22653 4.08333 5.48467 4.39062 4.93769 4.9376C4.39071 5.48459 4.08341 6.22645 4.08341 7C4.08341 7.77355 4.39071 8.51541 4.93769 9.06239C5.48467 9.60938 6.22653 9.91667 7.00008 9.91667C7.77363 9.91667 8.51549 9.60938 9.06248 9.06239C9.60946 8.51541 9.91675 7.77355 9.91675 7C9.91675 6.22645 9.60946 5.48459 9.06248 4.9376C8.51549 4.39062 7.77363 4.08333 7.00008 4.08333ZM10.7917 3.9375C10.7917 3.74411 10.7149 3.55865 10.5782 3.4219C10.4414 3.28516 10.256 3.20833 10.0626 3.20833C9.86919 3.20833 9.68373 3.28516 9.54698 3.4219C9.41024 3.55865 9.33341 3.74411 9.33341 3.9375C9.33341 4.13089 9.41024 4.31635 9.54698 4.4531C9.68373 4.58984 9.86919 4.66667 10.0626 4.66667C10.256 4.66667 10.4414 4.58984 10.5782 4.4531C10.7149 4.31635 10.7917 4.13089 10.7917 3.9375ZM7.00008 5.25C7.46421 5.25 7.90933 5.43437 8.23752 5.76256C8.56571 6.09075 8.75008 6.53587 8.75008 7C8.75008 7.46413 8.56571 7.90925 8.23752 8.23744C7.90933 8.56563 7.46421 8.75 7.00008 8.75C6.53595 8.75 6.09083 8.56563 5.76264 8.23744C5.43446 7.90925 5.25008 7.46413 5.25008 7C5.25008 6.53587 5.43446 6.09075 5.76264 5.76256C6.09083 5.43437 6.53595 5.25 7.00008 5.25Z" fill="#13297E"/>
</g>
</svg>
