<svg width="20" height="20" viewBox="0 0 20 20" fill="none" xmlns="http://www.w3.org/2000/svg">
<g id="linkedin">
<path id="Vector" d="M5.16472 4.24974C5.16449 4.71357 4.98001 5.1583 4.65187 5.48612C4.32373 5.81393 3.87881 5.99796 3.41498 5.99773C2.95115 5.9975 2.50642 5.81302 2.1786 5.48488C1.85079 5.15674 1.66676 4.71182 1.66699 4.24799C1.66722 3.78416 1.8517 3.33942 2.17984 3.01161C2.50798 2.6838 2.9529 2.49977 3.41673 2.5C3.88056 2.50023 4.3253 2.68471 4.65311 3.01285C4.98092 3.34099 5.16495 3.78591 5.16472 4.24974ZM5.21719 7.29276H1.71946V18.2406H5.21719V7.29276ZM10.7436 7.29276H7.26336V18.2406H10.7086V12.4956C10.7086 9.29521 14.8797 8.9979 14.8797 12.4956V18.2406H18.3337V11.3064C18.3337 5.91116 12.1602 6.11228 10.7086 8.76181L10.7436 7.29276Z" fill="white"/>
</g>
</svg>
