<svg width="20" height="20" viewBox="0 0 20 20" fill="none" xmlns="http://www.w3.org/2000/svg">
<g id="location">
<path id="Vector" d="M10.1273 10.1592C10.5944 10.1592 10.9944 9.99278 11.3273 9.65987C11.6596 9.32753 11.8258 8.92781 11.8258 8.46072C11.8258 7.99363 11.6596 7.59363 11.3273 7.26072C10.9944 6.92838 10.5944 6.76221 10.1273 6.76221C9.66022 6.76221 9.2605 6.92838 8.92816 7.26072C8.59525 7.59363 8.42879 7.99363 8.42879 8.46072C8.42879 8.92781 8.59525 9.32753 8.92816 9.65987C9.2605 9.99278 9.66022 10.1592 10.1273 10.1592ZM10.1273 16.4013C11.8541 14.816 13.1351 13.3757 13.9702 12.0803C14.8053 10.7854 15.2228 9.63553 15.2228 8.63057C15.2228 7.08776 14.7308 5.82435 13.7468 4.84034C12.7634 3.8569 11.5569 3.36518 10.1273 3.36518C8.69772 3.36518 7.49093 3.8569 6.50693 4.84034C5.52349 5.82435 5.03177 7.08776 5.03177 8.63057C5.03177 9.63553 5.44932 10.7854 6.28442 12.0803C7.11952 13.3757 8.40049 14.816 10.1273 16.4013ZM10.1273 18.3333C10.0141 18.3333 9.90084 18.3121 9.7876 18.2696C9.67437 18.2272 9.57529 18.1706 9.49036 18.0998C7.42384 16.2739 5.88102 14.5791 4.86191 13.0153C3.84281 11.451 3.33325 9.98939 3.33325 8.63057C3.33325 6.50743 4.01634 4.81599 5.38251 3.55626C6.74811 2.29653 8.32971 1.66667 10.1273 1.66667C11.9249 1.66667 13.5065 2.29653 14.8721 3.55626C16.2383 4.81599 16.9214 6.50743 16.9214 8.63057C16.9214 9.98939 16.4118 11.451 15.3927 13.0153C14.3736 14.5791 12.8308 16.2739 10.7643 18.0998C10.6793 18.1706 10.5802 18.2272 10.467 18.2696C10.3538 18.3121 10.2405 18.3333 10.1273 18.3333Z" fill="white"/>
</g>
</svg>
