<svg width="20" height="20" viewBox="0 0 20 20" fill="none" xmlns="http://www.w3.org/2000/svg">
<path d="M4.85333 3.02667L9.99999 8.17333L15.12 3.05333C15.2331 2.93296 15.3693 2.83666 15.5205 2.77022C15.6718 2.70377 15.8348 2.66855 16 2.66667C16.3536 2.66667 16.6928 2.80714 16.9428 3.05719C17.1929 3.30724 17.3333 3.64638 17.3333 4C17.3364 4.16347 17.3061 4.32585 17.2442 4.47718C17.1823 4.6285 17.0901 4.76558 16.9733 4.88L11.7867 10L16.9733 15.1867C17.1931 15.4017 17.3219 15.6928 17.3333 16C17.3333 16.3536 17.1929 16.6928 16.9428 16.9428C16.6928 17.1929 16.3536 17.3333 16 17.3333C15.8301 17.3404 15.6605 17.312 15.5021 17.25C15.3438 17.1881 15.2 17.0938 15.08 16.9733L9.99999 11.8267L4.86666 16.96C4.754 17.0764 4.61941 17.1693 4.47066 17.2333C4.32191 17.2974 4.16195 17.3314 3.99999 17.3333C3.64637 17.3333 3.30723 17.1929 3.05718 16.9428C2.80714 16.6928 2.66666 16.3536 2.66666 16C2.66355 15.8365 2.69388 15.6742 2.75579 15.5228C2.81769 15.3715 2.90987 15.2344 3.02666 15.12L8.21333 10L3.02666 4.81333C2.80691 4.59835 2.67805 4.30722 2.66666 4C2.66666 3.64638 2.80714 3.30724 3.05718 3.05719C3.30723 2.80714 3.64637 2.66667 3.99999 2.66667C4.31999 2.67067 4.62666 2.8 4.85333 3.02667Z" fill="black"/>
</svg>
