<svg width="64" height="64" viewBox="0 0 64 64" fill="none" xmlns="http://www.w3.org/2000/svg">
<g id="Microscope">
<path id="Vector" d="M22.4001 7.9999C22.4001 7.57556 22.5687 7.16859 22.8687 6.86853C23.1688 6.56847 23.5758 6.3999 24.0001 6.3999H30.4001C30.8244 6.3999 31.2314 6.56847 31.5315 6.86853C31.8315 7.16859 32.0001 7.57556 32.0001 7.9999V9.5999H33.6001C34.0244 9.5999 34.4314 9.76847 34.7315 10.0685C35.0315 10.3686 35.2001 10.7756 35.2001 11.1999V16.0959C35.317 16.0819 35.435 16.0808 35.5521 16.0927C39.8761 16.5001 43.9642 18.2508 47.2428 21.0992C50.5215 23.9477 52.8262 27.751 53.8338 31.9757C54.8413 36.2004 54.5012 40.6345 52.861 44.6561C51.2208 48.6776 48.3629 52.0849 44.6881 54.3999H52.8001C53.2244 54.3999 53.6314 54.5685 53.9315 54.8685C54.2315 55.1686 54.4001 55.5756 54.4001 55.9999C54.4001 56.4243 54.2315 56.8312 53.9315 57.1313C53.6314 57.4313 53.2244 57.5999 52.8001 57.5999H11.2001C10.7758 57.5999 10.3688 57.4313 10.0687 57.1313C9.76867 56.8312 9.6001 56.4243 9.6001 55.9999C9.6001 55.5756 9.76867 55.1686 10.0687 54.8685C10.3688 54.5685 10.7758 54.3999 11.2001 54.3999H33.6001C38.134 54.407 42.4958 52.6641 45.7764 49.5345C49.057 46.4049 51.0032 42.13 51.2095 37.6007C51.4158 33.0714 49.8662 28.6373 46.8837 25.2224C43.9012 21.8075 39.7159 19.6754 35.2001 19.2703V36.7999C35.2001 37.2243 35.0315 37.6312 34.7315 37.9313C34.4314 38.2313 34.0244 38.3999 33.6001 38.3999H32.0001V39.9999C32.0001 41.2729 31.4944 42.4938 30.5942 43.394C29.694 44.2942 28.4731 44.7999 27.2001 44.7999C25.9271 44.7999 24.7062 44.2942 23.806 43.394C22.9058 42.4938 22.4001 41.2729 22.4001 39.9999V38.3999H20.8001C20.3758 38.3999 19.9688 38.2313 19.6687 37.9313C19.3687 37.6312 19.2001 37.2243 19.2001 36.7999V11.1999C19.2001 10.7756 19.3687 10.3686 19.6687 10.0685C19.9688 9.76847 20.3758 9.5999 20.8001 9.5999H22.4001V7.9999ZM25.6001 38.3999V39.9999C25.6001 40.4243 25.7687 40.8312 26.0687 41.1313C26.3688 41.4313 26.7758 41.5999 27.2001 41.5999C27.6244 41.5999 28.0314 41.4313 28.3315 41.1313C28.6315 40.8312 28.8001 40.4243 28.8001 39.9999V38.3999H25.6001ZM22.4001 35.1999H32.0001V12.7999H22.4001V35.1999ZM17.6001 47.9999C17.1758 47.9999 16.7688 48.1685 16.4687 48.4685C16.1687 48.7686 16.0001 49.1756 16.0001 49.5999C16.0001 50.0243 16.1687 50.4312 16.4687 50.7313C16.7688 51.0313 17.1758 51.1999 17.6001 51.1999H36.8001C37.2244 51.1999 37.6314 51.0313 37.9315 50.7313C38.2315 50.4312 38.4001 50.0243 38.4001 49.5999C38.4001 49.1756 38.2315 48.7686 37.9315 48.4685C37.6314 48.1685 37.2244 47.9999 36.8001 47.9999H17.6001Z" fill="#13297E"/>
</g>
</svg>
