<svg width="20" height="20" viewBox="0 0 20 20" fill="none" xmlns="http://www.w3.org/2000/svg">
<g id="ooui:user-avatar-outline">
<path id="Vector" d="M10 8.33333C11.4167 8.33333 12.55 7.20833 12.55 5.83333C12.55 4.45833 11.4167 3.33333 10 3.33333C8.58333 3.33333 7.45 4.45833 7.45 5.83333C7.45 7.20833 8.58333 8.33333 10 8.33333ZM10 10C7.66667 10 5.78333 8.13333 5.78333 5.83333C5.78333 3.53333 7.66667 1.66666 10 1.66666C12.3333 1.66666 14.2167 3.53333 14.2167 5.83333C14.2167 8.13333 12.3333 10 10 10ZM4.16667 16.6667H15.8333V15.5583C15.8333 14.1 13.9083 12.5917 10 12.5917C6.09167 12.5917 4.16667 14.1 4.16667 15.5583V16.6667ZM10 10.925C15.55 10.925 17.5 13.7 17.5 15.5583V18.3333H2.5V15.5583C2.5 13.7 4.45 10.925 10 10.925Z" fill="#13297E"/>
</g>
</svg>
