<svg width="14" height="14" viewBox="0 0 14 14" fill="none" xmlns="http://www.w3.org/2000/svg">
<g id="pinterest">
<path id="Vector" d="M5.27317 12.565C5.83317 12.7342 6.399 12.8333 6.99984 12.8333C8.54693 12.8333 10.0307 12.2188 11.1246 11.1248C12.2186 10.0308 12.8332 8.5471 12.8332 7C12.8332 6.23396 12.6823 5.47541 12.3891 4.76768C12.096 4.05995 11.6663 3.41689 11.1246 2.87521C10.583 2.33354 9.93989 1.90386 9.23216 1.6107C8.52442 1.31755 7.76588 1.16667 6.99984 1.16667C6.23379 1.16667 5.47525 1.31755 4.76752 1.6107C4.05978 1.90386 3.41672 2.33354 2.87505 2.87521C1.78109 3.96917 1.1665 5.4529 1.1665 7C1.1665 9.47917 2.724 11.6083 4.92317 12.4483C4.87067 11.9933 4.81817 11.2408 4.92317 10.7217L5.594 7.84C5.594 7.84 5.42484 7.50167 5.42484 6.965C5.42484 6.16 5.9265 5.55917 6.49817 5.55917C6.99984 5.55917 7.23317 5.92667 7.23317 6.39917C7.23317 6.90083 6.90067 7.61833 6.7315 8.30667C6.63234 8.87833 7.03484 9.38 7.61817 9.38C8.6565 9.38 9.4615 8.27167 9.4615 6.70833C9.4615 5.30833 8.45817 4.35167 7.01734 4.35167C5.37234 4.35167 4.404 5.57667 4.404 6.86583C4.404 7.3675 4.56734 7.875 4.83567 8.2075C4.88817 8.2425 4.88817 8.28917 4.87067 8.37667L4.7015 9.0125C4.7015 9.11167 4.63734 9.14667 4.53817 9.07667C3.7915 8.75 3.35984 7.68833 3.35984 6.83083C3.35984 4.9875 4.6665 3.31333 7.1865 3.31333C9.19317 3.31333 10.7565 4.75417 10.7565 6.6675C10.7565 8.67417 9.514 10.2842 7.73484 10.2842C7.169 10.2842 6.61484 9.98083 6.4165 9.625L6.02567 11.0075C5.8915 11.5092 5.524 12.18 5.27317 12.5825V12.565Z" fill="#13297E"/>
</g>
</svg>
