<svg width="20" height="20" viewBox="0 0 20 20" fill="none" xmlns="http://www.w3.org/2000/svg">
<g id="pinterest">
<path id="Vector" d="M7.53366 17.95C8.33366 18.1916 9.14199 18.3333 10.0003 18.3333C12.2105 18.3333 14.3301 17.4553 15.8929 15.8925C17.4557 14.3297 18.3337 12.2101 18.3337 9.99996C18.3337 8.90561 18.1181 7.82198 17.6993 6.81093C17.2805 5.79988 16.6667 4.88122 15.8929 4.1074C15.1191 3.33358 14.2004 2.71975 13.1894 2.30096C12.1783 1.88217 11.0947 1.66663 10.0003 1.66663C8.90598 1.66663 7.82234 1.88217 6.8113 2.30096C5.80025 2.71975 4.88159 3.33358 4.10777 4.1074C2.54497 5.67021 1.66699 7.78982 1.66699 9.99996C1.66699 13.5416 3.89199 16.5833 7.03366 17.7833C6.95866 17.1333 6.88366 16.0583 7.03366 15.3166L7.99199 11.2C7.99199 11.2 7.75033 10.7166 7.75033 9.94996C7.75033 8.79996 8.46699 7.94163 9.28366 7.94163C10.0003 7.94163 10.3337 8.46663 10.3337 9.14163C10.3337 9.85829 9.85866 10.8833 9.61699 11.8666C9.47533 12.6833 10.0503 13.4 10.8837 13.4C12.367 13.4 13.517 11.8166 13.517 9.58329C13.517 7.58329 12.0837 6.21663 10.0253 6.21663C7.67533 6.21663 6.29199 7.96663 6.29199 9.80829C6.29199 10.525 6.52533 11.25 6.90866 11.725C6.98366 11.775 6.98366 11.8416 6.95866 11.9666L6.71699 12.875C6.71699 13.0166 6.62533 13.0666 6.48366 12.9666C5.41699 12.5 4.80033 10.9833 4.80033 9.75829C4.80033 7.12496 6.66699 4.73329 10.267 4.73329C13.1337 4.73329 15.367 6.79163 15.367 9.52496C15.367 12.3916 13.592 14.6916 11.0503 14.6916C10.242 14.6916 9.45033 14.2583 9.16699 13.75L8.60866 15.725C8.41699 16.4416 7.89199 17.4 7.53366 17.975V17.95Z" fill="white"/>
</g>
</svg>
