<svg width="40" height="41" viewBox="0 0 40 41" fill="none" xmlns="http://www.w3.org/2000/svg">
<circle cx="20" cy="21" r="16" fill="white"/>
<circle cx="20" cy="20.9465" r="19.5" stroke="white"/>
<path d="M24.4609 19.9491C24.7961 20.1516 25 20.5084 25 20.8928C25 21.2773 24.7961 21.6341 24.4609 21.8159L17.7116 25.8672C17.3643 26.0951 16.9295 26.1043 16.5747 25.9087C16.4003 25.8126 16.2551 25.6725 16.1541 25.503C16.0531 25.3335 15.9999 25.1406 16 24.9442V16.8415C16 16.6452 16.0533 16.4525 16.1543 16.2831C16.2553 16.1137 16.4004 15.9738 16.5747 15.8777C16.749 15.7817 16.9462 15.7331 17.1461 15.7368C17.3459 15.7404 17.5411 15.7963 17.7116 15.8986L24.4609 19.9491Z" fill="#E12454"/>
</svg>
