<svg width="80" height="80" viewBox="0 0 80 80" fill="none" xmlns="http://www.w3.org/2000/svg">
<g id="Frame 72">
<circle id="Ellipse 2" cx="40" cy="40" r="39" stroke="white" stroke-width="2"/>
<circle id="Ellipse 1" cx="40" cy="40" r="34" fill="white"/>
<path id="Vector" d="M47.7723 37.9016C48.4169 38.2912 48.8091 38.9774 48.8091 39.7167C48.8091 40.456 48.4169 41.1422 47.7723 41.492L34.7919 49.2836C34.1239 49.7219 33.2877 49.7396 32.6053 49.3633C32.2698 49.1785 31.9906 48.9092 31.7964 48.5831C31.6021 48.2571 31.4998 47.8861 31.5 47.5084V31.9251C31.5001 31.5475 31.6025 31.1768 31.7967 30.8511C31.991 30.5253 32.27 30.2562 32.6053 30.0714C32.9405 29.8869 33.3198 29.7933 33.7041 29.8004C34.0884 29.8075 34.4639 29.9149 34.7919 30.1117L47.7723 37.9016Z" fill="#E12454"/>
</g>
</svg>
