<svg width="88" height="88" viewBox="0 0 88 88" fill="none" xmlns="http://www.w3.org/2000/svg">
<g id="quote">
<path id="Vector" d="M47.57 28.2578C47.57 31.8756 48.5696 35.0045 50.6189 37.5467C53.7179 41.36 59.7658 41.8489 63.2646 41.0667C64.7141 49.1334 57.7165 59.4 48.6696 63.8L55.6172 73.3334C69.2626 66.9778 82.708 52.4089 80.4088 33.9778C78.9593 22.3423 72.0616 14.6667 62.3149 14.6667C58.0664 14.6667 54.5176 15.8889 51.7185 18.3334C48.9195 20.7778 47.57 24.1023 47.57 28.2578ZM7.33366 28.2578C7.33366 31.8756 8.33333 35.0045 10.3826 37.5467C13.5316 41.36 19.5295 41.8489 23.0283 41.0667C24.4778 49.1334 17.4802 59.4 8.4333 63.8L15.3809 73.3334C29.0263 66.9778 42.4217 52.4089 40.1225 33.9778C38.673 22.3423 31.8253 14.6667 22.0786 14.6667C17.8301 14.6667 14.2813 15.8889 11.4823 18.3334C8.68321 20.7778 7.33366 24.1023 7.33366 28.2578Z" fill="#178CEF" fill-opacity="0.12"/>
</g>
</svg>
