<svg width="60" height="60" viewBox="0 0 60 60" fill="none" xmlns="http://www.w3.org/2000/svg">
<g id="stethescope">
<g id="Group">
<path id="Vector" d="M13.2852 10.5494C13.7734 10.5494 14.2529 10.4212 14.6757 10.1777C15.0984 9.93414 15.4495 9.58388 15.6936 9.16208C15.9377 8.74027 16.0662 8.26179 16.0662 7.77473C16.0662 7.28767 15.9377 6.80918 15.6936 6.38737C15.4496 5.96556 15.0985 5.61529 14.6758 5.37175C14.253 5.12822 13.7735 5 13.2853 5C12.7972 5 12.3176 5.1282 11.8949 5.37173C11.4721 5.61526 11.121 5.96553 10.877 6.38734H10.5043C9.39803 6.38734 8.33704 6.82584 7.55476 7.60637C6.77249 8.38691 6.33301 9.44553 6.33301 10.5494V23.0355H9.11389V10.5494C9.11389 10.1814 9.26039 9.82855 9.52114 9.56837C9.7819 9.3082 10.1356 9.16203 10.5043 9.16203H10.877C11.121 9.58382 11.4721 9.93409 11.8948 10.1776C12.3176 10.4211 12.7971 10.5494 13.2852 10.5494Z" fill="#13297E"/>
<path id="Vector_2" fill-rule="evenodd" clip-rule="evenodd" d="M10.7269 23.0355H6.33313C5.5656 23.0355 4.93573 23.6584 5.00525 24.4214C5.28607 27.4934 6.49336 30.4084 8.46795 32.7821C10.4425 35.1557 13.0917 36.8765 16.0662 37.7177V41.0709C16.0662 42.8828 17.2272 44.4255 18.8471 44.9971C18.8619 47.6647 19.9381 50.2172 21.839 52.0931C23.7399 53.969 26.3099 55.0146 28.9834 54.9998C31.657 54.9851 34.2152 53.9113 36.0953 52.0146C37.9753 50.1179 39.0233 47.5537 39.0085 44.8861V39.3367C39.0085 37.9569 39.5579 36.6337 40.5357 35.658C41.5136 34.6823 42.8398 34.1342 44.2227 34.1342C45.6056 34.1342 46.9318 34.6823 47.9096 35.658C48.8875 36.6337 49.4368 37.9569 49.4368 39.3367V42.6941C48.5087 43.0214 47.7265 43.6655 47.2283 44.5126C46.7302 45.3598 46.5482 46.3553 46.7146 47.3234C46.881 48.2914 47.3851 49.1696 48.1376 49.8027C48.8902 50.4358 49.8429 50.783 50.8273 50.783C51.8116 50.783 52.7643 50.4358 53.5169 49.8027C54.2695 49.1696 54.7735 48.2914 54.9399 47.3234C55.1063 46.3553 54.9244 45.3598 54.4262 44.5126C53.9281 43.6655 53.1458 43.0214 52.2177 42.6941V39.3367C52.2177 37.2211 51.3754 35.192 49.876 33.696C48.3767 32.2 46.3431 31.3595 44.2227 31.3595C42.1023 31.3595 40.0687 32.2 38.5693 33.696C37.07 35.192 36.2276 37.2211 36.2276 39.3367V44.8861C36.2424 46.8178 35.4874 48.6763 34.1289 50.0526C32.7703 51.429 30.9195 52.2104 28.9834 52.2252C27.0474 52.2399 25.1848 51.4866 23.8054 50.1311C22.426 48.7756 21.6427 46.9288 21.628 44.9971C22.4415 44.7099 23.1458 44.1781 23.6438 43.475C24.1418 42.7718 24.4091 41.9319 24.4089 41.0709V37.7177C27.3834 36.8765 30.0326 35.1557 32.0071 32.7821C33.9817 30.4084 35.189 27.4934 35.4698 24.4214C35.5394 23.6584 34.9095 23.0355 34.142 23.0355V10.5494C34.142 9.44553 33.7025 8.38691 32.9202 7.60637C32.1379 6.82584 31.0769 6.38734 29.9706 6.38734H29.598C29.2919 5.85841 28.8194 5.44502 28.2539 5.2113C27.6883 4.97758 27.0613 4.93659 26.47 5.09467C25.8787 5.25275 25.3562 5.60109 24.9836 6.08564C24.6109 6.5702 24.4089 7.16391 24.4089 7.77469C24.4089 8.38547 24.6109 8.97917 24.9836 9.46373C25.3562 9.94829 25.8787 10.2966 26.47 10.4547C27.0613 10.6128 27.6883 10.5718 28.2539 10.3381C28.8194 10.1043 29.2919 9.69097 29.598 9.16203H29.9706C30.3394 9.16203 30.6931 9.3082 30.9538 9.56837C31.2146 9.82855 31.3611 10.1814 31.3611 10.5494V23.0355H29.7482C28.9806 23.0355 28.3702 23.6598 28.2395 24.4159C27.9141 26.2981 26.9328 28.005 25.4686 29.2355C24.0045 30.4659 22.1518 31.1406 20.2375 31.1406C18.3233 31.1406 16.4706 30.4659 15.0065 29.2355C13.5423 28.005 12.561 26.2981 12.2356 24.4159C12.1049 23.6612 11.4944 23.0355 10.7269 23.0355ZM30.7771 25.8101H32.4387C31.8086 28.5687 30.2582 31.032 28.0415 32.7964C25.8248 34.5608 23.0732 35.5218 20.2375 35.5218C17.4019 35.5218 14.6503 34.5608 12.4336 32.7964C10.2169 31.032 8.66651 28.5687 8.03642 25.8101H9.698C10.3126 28.1315 11.6796 30.1847 13.5861 31.6497C15.4925 33.1146 17.8312 33.909 20.2375 33.909C22.6439 33.909 24.9826 33.1146 26.889 31.6497C28.7955 30.1847 30.1625 28.1315 30.7771 25.8101ZM50.8273 45.2329C51.196 45.2329 51.5497 45.3791 51.8105 45.6393C52.0712 45.8995 52.2177 46.2523 52.2177 46.6203C52.2177 46.9882 52.0712 47.3411 51.8105 47.6013C51.5497 47.8615 51.196 48.0076 50.8273 48.0076C50.4585 48.0076 50.1048 47.8615 49.8441 47.6013C49.5833 47.3411 49.4368 46.9882 49.4368 46.6203C49.4368 46.2523 49.5833 45.8995 49.8441 45.6393C50.1048 45.3791 50.4585 45.2329 50.8273 45.2329ZM21.628 38.2962V41.0709C21.628 41.4389 21.4815 41.7917 21.2207 42.0519C20.96 42.3121 20.6063 42.4583 20.2375 42.4583C19.8688 42.4583 19.5151 42.3121 19.2544 42.0519C18.9936 41.7917 18.8471 41.4389 18.8471 41.0709V38.2962H21.628Z" fill="#13297E"/>
</g>
</g>
</svg>
