<svg width="61" height="60" viewBox="0 0 61 60" fill="none" xmlns="http://www.w3.org/2000/svg">
<g id="target">
<path id="Vector" d="M50.93 16.875H46.2775L34.8624 28.285C35.2556 29.2869 35.2918 30.3937 34.9648 31.4192C34.6379 32.4447 33.9679 33.3264 33.0673 33.9159C32.1668 34.5055 31.0907 34.767 30.0201 34.6565C28.9494 34.5459 27.9495 34.0701 27.1884 33.309C26.4273 32.5479 25.9515 31.548 25.8409 30.4773C25.7304 29.4067 25.9919 28.3306 26.5815 27.4301C27.171 26.5296 28.0527 25.8595 29.0782 25.5326C30.1037 25.2056 31.2105 25.2418 32.2124 25.635L43.6249 14.2225V9.56996C43.6252 8.9474 43.8724 8.35038 44.3124 7.90996L48.6374 3.58496C48.7173 3.50417 48.8178 3.44678 48.928 3.41902C49.0381 3.39125 49.1538 3.39417 49.2624 3.42746C49.4849 3.49246 49.6499 3.67746 49.6949 3.90496L50.8449 9.65746L56.5949 10.8075C56.8199 10.8525 57.0049 11.0175 57.0699 11.24C57.1028 11.348 57.1057 11.463 57.0784 11.5726C57.0511 11.6822 56.9946 11.7824 56.9149 11.8625L52.5874 16.1875C52.3699 16.4054 52.1115 16.5782 51.8271 16.6962C51.5427 16.8142 51.2379 16.8749 50.93 16.875Z" fill="#13297E"/>
<path id="Vector_2" d="M7.0625 30C7.0625 36.216 9.5318 42.1774 13.9272 46.5728C18.3226 50.9682 24.284 53.4375 30.5 53.4375C33.5779 53.4375 36.6256 52.8313 39.4691 51.6534C42.3127 50.4756 44.8964 48.7492 47.0728 46.5728C49.2492 44.3965 50.9756 41.8127 52.1534 38.9692C53.3313 36.1256 53.9375 33.0779 53.9375 30C53.9375 27.755 53.6225 25.585 53.035 23.5325C52.9182 23.0612 52.9888 22.563 53.2319 22.1428C53.475 21.7225 53.8716 21.4129 54.3384 21.2791C54.8051 21.1453 55.3055 21.1978 55.7343 21.4255C56.1632 21.6532 56.4869 22.0384 56.6375 22.5C57.3225 24.885 57.6875 27.4 57.6875 30C57.6875 45.015 45.515 57.1875 30.5 57.1875C15.485 57.1875 3.3125 45.015 3.3125 30C3.3125 14.985 15.485 2.81251 30.5 2.81251C33.0375 2.81001 35.56 3.16251 38 3.86001C38.2379 3.92675 38.4603 4.03985 38.6543 4.19281C38.8484 4.34578 39.0103 4.53559 39.1307 4.75133C39.2512 4.96707 39.3278 5.2045 39.3562 5.44995C39.3846 5.69541 39.3641 5.94405 39.2961 6.18159C39.2281 6.41913 39.1138 6.64088 38.9597 6.83409C38.8057 7.0273 38.615 7.18816 38.3986 7.30743C38.1822 7.4267 37.9444 7.50202 37.6988 7.52907C37.4532 7.55611 37.2047 7.53434 36.9675 7.46501C34.8642 6.86433 32.6874 6.56056 30.5 6.56251C24.284 6.56251 18.3226 9.03181 13.9272 13.4272C9.5318 17.8226 7.0625 23.784 7.0625 30Z" fill="#13297E"/>
<path id="Vector_3" d="M18.3126 30C18.3196 31.6558 18.6639 33.2928 19.3247 34.8111C19.9855 36.3293 20.9487 37.697 22.1557 38.8306C23.3627 39.9641 24.788 40.8398 26.3447 41.4041C27.9014 41.9684 29.5568 42.2096 31.2098 42.1128C32.8628 42.016 34.4787 41.5833 35.9589 40.8411C37.4391 40.099 38.7525 39.0629 39.8189 37.7963C40.8853 36.5296 41.6824 35.0588 42.1614 33.4738C42.6404 31.8888 42.7914 30.2228 42.6051 28.5775C42.5526 28.2442 42.5912 27.903 42.7168 27.59C42.8425 27.2769 43.0505 27.0037 43.3187 26.7992C43.587 26.5947 43.9056 26.4666 44.2408 26.4284C44.576 26.3903 44.9152 26.4435 45.2226 26.5825C45.8501 26.8625 46.2726 27.46 46.3276 28.145C46.7158 31.4331 46.0699 34.7604 44.4798 37.6646C42.8897 40.5687 40.4343 42.9053 37.455 44.3496C34.4757 45.7939 31.1204 46.2741 27.8556 45.7236C24.5907 45.173 21.5785 43.6189 19.2376 41.2775C16.8973 38.9385 15.3429 35.9293 14.7899 32.6672C14.2369 29.405 14.7127 26.0516 16.1514 23.0721C17.5901 20.0925 19.9203 17.6345 22.8188 16.0389C25.7173 14.4434 29.0406 13.7893 32.3276 14.1675C32.5761 14.1905 32.8175 14.2629 33.0376 14.3805C33.2577 14.4981 33.4522 14.6584 33.6095 14.8521C33.7669 15.0457 33.884 15.2689 33.9541 15.5084C34.0241 15.7479 34.0456 15.999 34.0173 16.247C33.989 16.4949 33.9115 16.7347 33.7893 16.9524C33.6671 17.17 33.5028 17.361 33.3058 17.5142C33.1089 17.6675 32.8833 17.7799 32.6423 17.8448C32.4014 17.9098 32.1499 17.926 31.9026 17.8925C30.1952 17.6951 28.4653 17.861 26.8265 18.3793C25.1877 18.8976 23.6771 19.7567 22.3937 20.9C21.1103 22.0434 20.0833 23.4452 19.3799 25.0135C18.6766 26.5818 18.3128 28.2812 18.3126 30Z" fill="#13297E"/>
</g>
</svg>
